<svg width="1920" height="1080" viewBox="0 0 1920 1080" fill="none" xmlns="http://www.w3.org/2000/svg">
<g clip-path="url(#clip0_99_50)">
<path d="M0 747L32 747.7C64 748.3 128 749.7 192 771.8C256 794 320 837 384 849.3C448 861.7 512 843.3 576 819.2C640 795 704 765 768 772.7C832 780.3 896 825.7 960 857.5C1024 889.3 1088 907.7 1152 895.2C1216 882.7 1280 839.3 1344 812C1408 784.7 1472 773.3 1536 791C1600 808.7 1664 855.3 1728 864.7C1792 874 1856 846 1888 832L1920 818V1081H1888C1856 1081 1792 1081 1728 1081C1664 1081 1600 1081 1536 1081C1472 1081 1408 1081 1344 1081C1280 1081 1216 1081 1152 1081C1088 1081 1024 1081 960 1081C896 1081 832 1081 768 1081C704 1081 640 1081 576 1081C512 1081 448 1081 384 1081C320 1081 256 1081 192 1081C128 1081 64 1081 32 1081H0V747Z" fill="#F9F9F9"/>
<path d="M0 858L32 849C64 840 128 822 192 824.2C256 826.3 320 848.7 384 870C448 891.3 512 911.7 576 920.3C640 929 704 926 768 904.8C832 883.7 896 844.3 960 841.2C1024 838 1088 871 1152 893.3C1216 915.7 1280 927.3 1344 929.2C1408 931 1472 923 1536 903C1600 883 1664 851 1728 838.8C1792 826.7 1856 834.3 1888 838.2L1920 842V1081H1888C1856 1081 1792 1081 1728 1081C1664 1081 1600 1081 1536 1081C1472 1081 1408 1081 1344 1081C1280 1081 1216 1081 1152 1081C1088 1081 1024 1081 960 1081C896 1081 832 1081 768 1081C704 1081 640 1081 576 1081C512 1081 448 1081 384 1081C320 1081 256 1081 192 1081C128 1081 64 1081 32 1081H0V858Z" fill="#CCD0E1"/>
<path d="M0 885L32 896.2C64 907.3 128 929.7 192 944.7C256 959.7 320 967.3 384 954.3C448 941.3 512 907.7 576 908C640 908.3 704 942.7 768 958.2C832 973.7 896 970.3 960 973.7C1024 977 1088 987 1152 986.8C1216 986.7 1280 976.3 1344 964.5C1408 952.7 1472 939.3 1536 932C1600 924.7 1664 923.3 1728 915.8C1792 908.3 1856 894.7 1888 887.8L1920 881V1081H1888C1856 1081 1792 1081 1728 1081C1664 1081 1600 1081 1536 1081C1472 1081 1408 1081 1344 1081C1280 1081 1216 1081 1152 1081C1088 1081 1024 1081 960 1081C896 1081 832 1081 768 1081C704 1081 640 1081 576 1081C512 1081 448 1081 384 1081C320 1081 256 1081 192 1081C128 1081 64 1081 32 1081H0V885Z" fill="#99A3C4"/>
<path d="M0 925L32 927.2C64 929.3 128 933.7 192 943.8C256 954 320 970 384 971.7C448 973.3 512 960.7 576 959.5C640 958.3 704 968.7 768 974C832 979.3 896 979.7 960 971.7C1024 963.7 1088 947.3 1152 949.5C1216 951.7 1280 972.3 1344 970.3C1408 968.3 1472 943.7 1536 945.3C1600 947 1664 975 1728 978C1792 981 1856 959 1888 948L1920 937V1081H1888C1856 1081 1792 1081 1728 1081C1664 1081 1600 1081 1536 1081C1472 1081 1408 1081 1344 1081C1280 1081 1216 1081 1152 1081C1088 1081 1024 1081 960 1081C896 1081 832 1081 768 1081C704 1081 640 1081 576 1081C512 1081 448 1081 384 1081C320 1081 256 1081 192 1081C128 1081 64 1081 32 1081H0V925Z" fill="#6779A7"/>
<path d="M0 1031L32 1030.3C64 1029.7 128 1028.3 192 1026.3C256 1024.3 320 1021.7 384 1012.3C448 1003 512 987 576 984.7C640 982.3 704 993.7 768 1001.8C832 1010 896 1015 960 1012.3C1024 1009.7 1088 999.3 1152 1001.3C1216 1003.3 1280 1017.7 1344 1027.5C1408 1037.3 1472 1042.7 1536 1032.8C1600 1023 1664 998 1728 991.8C1792 985.7 1856 998.3 1888 1004.7L1920 1011V1081H1888C1856 1081 1792 1081 1728 1081C1664 1081 1600 1081 1536 1081C1472 1081 1408 1081 1344 1081C1280 1081 1216 1081 1152 1081C1088 1081 1024 1081 960 1081C896 1081 832 1081 768 1081C704 1081 640 1081 576 1081C512 1081 448 1081 384 1081C320 1081 256 1081 192 1081C128 1081 64 1081 32 1081H0V1031Z" fill="#2F518A"/>
</g>
<path d="M117.288 670.5C117.776 670.5 118.224 670.612 118.632 670.836C119.032 671.06 119.356 671.404 119.604 671.868C119.852 672.332 119.976 672.908 119.976 673.596V674.868H123V676.92H114.576V673.596C114.576 672.924 114.692 672.356 114.924 671.892C115.156 671.428 115.476 671.08 115.884 670.848C116.292 670.616 116.76 670.5 117.288 670.5ZM118.344 673.752C118.344 673.36 118.252 673.068 118.068 672.876C117.884 672.684 117.624 672.588 117.288 672.588C116.952 672.588 116.692 672.684 116.508 672.876C116.324 673.068 116.232 673.36 116.232 673.752V674.868H118.344V673.752ZM123 659.136L119.82 660.888V661.38H123V663.432H114.576V659.988C114.576 659.324 114.692 658.76 114.924 658.296C115.156 657.824 115.476 657.472 115.884 657.24C116.284 657.008 116.732 656.892 117.228 656.892C117.788 656.892 118.288 657.052 118.728 657.372C119.168 657.684 119.48 658.148 119.664 658.764L123 656.82V659.136ZM118.368 661.38V660.108C118.368 659.732 118.276 659.452 118.092 659.268C117.908 659.076 117.648 658.98 117.312 658.98C116.992 658.98 116.74 659.076 116.556 659.268C116.372 659.452 116.28 659.732 116.28 660.108V661.38H118.368ZM123.084 645.62C123.084 646.412 122.9 647.14 122.532 647.804C122.164 648.46 121.652 648.984 120.996 649.376C120.332 649.76 119.588 649.952 118.764 649.952C117.94 649.952 117.2 649.76 116.544 649.376C115.888 648.984 115.376 648.46 115.008 647.804C114.64 647.14 114.456 646.412 114.456 645.62C114.456 644.828 114.64 644.104 115.008 643.448C115.376 642.784 115.888 642.264 116.544 641.888C117.2 641.504 117.94 641.312 118.764 641.312C119.588 641.312 120.332 641.504 120.996 641.888C121.652 642.272 122.164 642.792 122.532 643.448C122.9 644.104 123.084 644.828 123.084 645.62ZM121.212 645.62C121.212 644.948 120.988 644.412 120.54 644.012C120.092 643.604 119.5 643.4 118.764 643.4C118.02 643.4 117.428 643.604 116.988 644.012C116.54 644.412 116.316 644.948 116.316 645.62C116.316 646.3 116.536 646.844 116.976 647.252C117.416 647.652 118.012 647.852 118.764 647.852C119.508 647.852 120.104 647.652 120.552 647.252C120.992 646.844 121.212 646.3 121.212 645.62ZM117.24 628.578C116.96 628.73 116.748 628.95 116.604 629.238C116.452 629.518 116.376 629.85 116.376 630.234C116.376 630.898 116.596 631.43 117.036 631.83C117.468 632.23 118.048 632.43 118.776 632.43C119.552 632.43 120.16 632.222 120.6 631.806C121.032 631.382 121.248 630.802 121.248 630.066C121.248 629.562 121.12 629.138 120.864 628.794C120.608 628.442 120.24 628.186 119.76 628.026V630.63H118.248V626.166H120.156C120.668 626.318 121.144 626.578 121.584 626.946C122.024 627.306 122.38 627.766 122.652 628.326C122.924 628.886 123.06 629.518 123.06 630.222C123.06 631.054 122.88 631.798 122.52 632.454C122.152 633.102 121.644 633.61 120.996 633.978C120.348 634.338 119.608 634.518 118.776 634.518C117.944 634.518 117.204 634.338 116.556 633.978C115.9 633.61 115.392 633.102 115.032 632.454C114.664 631.806 114.48 631.066 114.48 630.234C114.48 629.226 114.724 628.378 115.212 627.69C115.7 626.994 116.376 626.534 117.24 626.31V628.578ZM123 614.733L119.82 616.485V616.977H123V619.029H114.576V615.585C114.576 614.921 114.692 614.357 114.924 613.893C115.156 613.421 115.476 613.069 115.884 612.837C116.284 612.605 116.732 612.489 117.228 612.489C117.788 612.489 118.288 612.649 118.728 612.969C119.168 613.281 119.48 613.745 119.664 614.361L123 612.417V614.733ZM118.368 616.977V615.705C118.368 615.329 118.276 615.049 118.092 614.865C117.908 614.673 117.648 614.577 117.312 614.577C116.992 614.577 116.74 614.673 116.556 614.865C116.372 615.049 116.28 615.329 116.28 615.705V616.977H118.368ZM121.512 599.957V603.101L123 603.605V605.753L114.576 602.705V600.329L123 597.281V599.453L121.512 599.957ZM119.928 600.485L116.844 601.529L119.928 602.561V600.485ZM114.576 580.814H123V582.866H117.948L123 584.75V586.406L117.936 588.302H123V590.354H114.576V587.93L120.408 585.566L114.576 583.226V580.814ZM114.576 563.798H123V565.85H117.948L123 567.734V569.39L117.936 571.286H123V573.338H114.576V570.914L120.408 568.55L114.576 566.21V563.798ZM114.576 554.27H123V556.322H114.576L114.576 554.27ZM123 539.247V541.299L117.804 544.731H123V546.783H114.576V544.731L119.796 541.299H114.576V539.247H123ZM117.24 526.168C116.96 526.32 116.748 526.54 116.604 526.828C116.452 527.108 116.376 527.44 116.376 527.824C116.376 528.488 116.596 529.02 117.036 529.42C117.468 529.82 118.048 530.02 118.776 530.02C119.552 530.02 120.16 529.812 120.6 529.396C121.032 528.972 121.248 528.392 121.248 527.656C121.248 527.152 121.12 526.728 120.864 526.384C120.608 526.032 120.24 525.776 119.76 525.616V528.22H118.248V523.756H120.156C120.668 523.908 121.144 524.168 121.584 524.536C122.024 524.896 122.38 525.356 122.652 525.916C122.924 526.476 123.06 527.108 123.06 527.812C123.06 528.644 122.88 529.388 122.52 530.044C122.152 530.692 121.644 531.2 120.996 531.568C120.348 531.928 119.608 532.108 118.776 532.108C117.944 532.108 117.204 531.928 116.556 531.568C115.9 531.2 115.392 530.692 115.032 530.044C114.664 529.396 114.48 528.656 114.48 527.824C114.48 526.816 114.724 525.968 115.212 525.28C115.7 524.584 116.376 524.124 117.24 523.9V526.168ZM114.576 502.016H116.22V504.248H123V506.3H116.22V508.532H114.576V502.016ZM121.512 489.742V492.886L123 493.39V495.538L114.576 492.49V490.114L123 487.066V489.238L121.512 489.742ZM119.928 490.27L116.844 491.314L119.928 492.346V490.27ZM114.576 476.983C114.576 476.095 114.752 475.319 115.104 474.655C115.456 473.991 115.952 473.479 116.592 473.119C117.224 472.751 117.956 472.567 118.788 472.567C119.612 472.567 120.344 472.751 120.984 473.119C121.624 473.479 122.12 473.995 122.472 474.667C122.824 475.331 123 476.103 123 476.983V480.139H114.576V476.983ZM121.224 477.115C121.224 476.339 121.012 475.735 120.588 475.303C120.164 474.871 119.564 474.655 118.788 474.655C118.012 474.655 117.408 474.871 116.976 475.303C116.544 475.735 116.328 476.339 116.328 477.115V478.087H121.224V477.115ZM114.576 463.404H119.616C120.12 463.404 120.508 463.28 120.78 463.032C121.052 462.784 121.188 462.42 121.188 461.94C121.188 461.46 121.052 461.092 120.78 460.836C120.508 460.58 120.12 460.452 119.616 460.452H114.576V458.4H119.604C120.356 458.4 120.992 458.56 121.512 458.88C122.032 459.2 122.424 459.632 122.688 460.176C122.952 460.712 123.084 461.312 123.084 461.976C123.084 462.64 122.956 463.236 122.7 463.764C122.436 464.284 122.044 464.696 121.524 465C120.996 465.304 120.356 465.456 119.604 465.456H114.576V463.404ZM121.416 448.907V446.219H123V450.959H114.576V448.907H121.416ZM121.512 433.996V437.14L123 437.644V439.792L114.576 436.744V434.368L123 431.32V433.492L121.512 433.996ZM119.928 434.524L116.844 435.568L119.928 436.6V434.524ZM123 419.509L119.28 422.341H123V424.393H114.576V422.341H118.272L114.576 419.533V417.121L118.704 420.385L123 417.001V419.509ZM123.084 406.042C123.084 406.834 122.9 407.562 122.532 408.226C122.164 408.882 121.652 409.406 120.996 409.798C120.332 410.182 119.588 410.374 118.764 410.374C117.94 410.374 117.2 410.182 116.544 409.798C115.888 409.406 115.376 408.882 115.008 408.226C114.64 407.562 114.456 406.834 114.456 406.042C114.456 405.25 114.64 404.526 115.008 403.87C115.376 403.206 115.888 402.686 116.544 402.31C117.2 401.926 117.94 401.734 118.764 401.734C119.588 401.734 120.332 401.926 120.996 402.31C121.652 402.694 122.164 403.214 122.532 403.87C122.9 404.526 123.084 405.25 123.084 406.042ZM121.212 406.042C121.212 405.37 120.988 404.834 120.54 404.434C120.092 404.026 119.5 403.822 118.764 403.822C118.02 403.822 117.428 404.026 116.988 404.434C116.54 404.834 116.316 405.37 116.316 406.042C116.316 406.722 116.536 407.266 116.976 407.674C117.416 408.074 118.012 408.274 118.764 408.274C119.508 408.274 120.104 408.074 120.552 407.674C120.992 407.266 121.212 406.722 121.212 406.042Z" fill="#2F518A"/>
<path d="M1802.71 408.5C1802.22 408.5 1801.78 408.388 1801.37 408.164C1800.97 407.94 1800.64 407.596 1800.4 407.132C1800.15 406.668 1800.02 406.092 1800.02 405.404V404.132H1797V402.08H1805.42V405.404C1805.42 406.076 1805.31 406.644 1805.08 407.108C1804.84 407.572 1804.52 407.92 1804.12 408.152C1803.71 408.384 1803.24 408.5 1802.71 408.5ZM1801.66 405.248C1801.66 405.64 1801.75 405.932 1801.93 406.124C1802.12 406.316 1802.38 406.412 1802.71 406.412C1803.05 406.412 1803.31 406.316 1803.49 406.124C1803.68 405.932 1803.77 405.64 1803.77 405.248V404.132H1801.66V405.248ZM1797 419.864L1800.18 418.112V417.62H1797V415.568H1805.42V419.012C1805.42 419.676 1805.31 420.24 1805.08 420.704C1804.84 421.176 1804.52 421.528 1804.12 421.76C1803.72 421.992 1803.27 422.108 1802.77 422.108C1802.21 422.108 1801.71 421.948 1801.27 421.628C1800.83 421.316 1800.52 420.852 1800.34 420.236L1797 422.18V419.864ZM1801.63 417.62V418.892C1801.63 419.268 1801.72 419.548 1801.91 419.732C1802.09 419.924 1802.35 420.02 1802.69 420.02C1803.01 420.02 1803.26 419.924 1803.44 419.732C1803.63 419.548 1803.72 419.268 1803.72 418.892V417.62H1801.63ZM1796.92 433.38C1796.92 432.588 1797.1 431.86 1797.47 431.196C1797.84 430.54 1798.35 430.016 1799 429.624C1799.67 429.24 1800.41 429.048 1801.24 429.048C1802.06 429.048 1802.8 429.24 1803.46 429.624C1804.11 430.016 1804.62 430.54 1804.99 431.196C1805.36 431.86 1805.54 432.588 1805.54 433.38C1805.54 434.172 1805.36 434.896 1804.99 435.552C1804.62 436.216 1804.11 436.736 1803.46 437.112C1802.8 437.496 1802.06 437.688 1801.24 437.688C1800.41 437.688 1799.67 437.496 1799 437.112C1798.35 436.728 1797.84 436.208 1797.47 435.552C1797.1 434.896 1796.92 434.172 1796.92 433.38ZM1798.79 433.38C1798.79 434.052 1799.01 434.588 1799.46 434.988C1799.91 435.396 1800.5 435.6 1801.24 435.6C1801.98 435.6 1802.57 435.396 1803.01 434.988C1803.46 434.588 1803.68 434.052 1803.68 433.38C1803.68 432.7 1803.46 432.156 1803.02 431.748C1802.58 431.348 1801.99 431.148 1801.24 431.148C1800.49 431.148 1799.9 431.348 1799.45 431.748C1799.01 432.156 1798.79 432.7 1798.79 433.38ZM1802.76 450.422C1803.04 450.27 1803.25 450.05 1803.4 449.762C1803.55 449.482 1803.62 449.15 1803.62 448.766C1803.62 448.102 1803.4 447.57 1802.96 447.17C1802.53 446.77 1801.95 446.57 1801.22 446.57C1800.45 446.57 1799.84 446.778 1799.4 447.194C1798.97 447.618 1798.75 448.198 1798.75 448.934C1798.75 449.438 1798.88 449.862 1799.14 450.206C1799.39 450.558 1799.76 450.814 1800.24 450.974V448.37H1801.75V452.834H1799.84C1799.33 452.682 1798.86 452.422 1798.42 452.054C1797.98 451.694 1797.62 451.234 1797.35 450.674C1797.08 450.114 1796.94 449.482 1796.94 448.778C1796.94 447.946 1797.12 447.202 1797.48 446.546C1797.85 445.898 1798.36 445.39 1799 445.022C1799.65 444.662 1800.39 444.482 1801.22 444.482C1802.06 444.482 1802.8 444.662 1803.44 445.022C1804.1 445.39 1804.61 445.898 1804.97 446.546C1805.34 447.194 1805.52 447.934 1805.52 448.766C1805.52 449.774 1805.28 450.622 1804.79 451.31C1804.3 452.006 1803.62 452.466 1802.76 452.69V450.422ZM1797 464.267L1800.18 462.515V462.023H1797V459.971H1805.42V463.415C1805.42 464.079 1805.31 464.643 1805.08 465.107C1804.84 465.579 1804.52 465.931 1804.12 466.163C1803.72 466.395 1803.27 466.511 1802.77 466.511C1802.21 466.511 1801.71 466.351 1801.27 466.031C1800.83 465.719 1800.52 465.255 1800.34 464.639L1797 466.583V464.267ZM1801.63 462.023V463.295C1801.63 463.671 1801.72 463.951 1801.91 464.135C1802.09 464.327 1802.35 464.423 1802.69 464.423C1803.01 464.423 1803.26 464.327 1803.44 464.135C1803.63 463.951 1803.72 463.671 1803.72 463.295V462.023H1801.63ZM1798.49 479.043V475.899L1797 475.395V473.247L1805.42 476.295V478.671L1797 481.719V479.547L1798.49 479.043ZM1800.07 478.515L1803.16 477.471L1800.07 476.439V478.515ZM1805.42 498.186H1797V496.134H1802.05L1797 494.25V492.594L1802.06 490.698H1797V488.646H1805.42V491.07L1799.59 493.434L1805.42 495.774V498.186ZM1805.42 515.202H1797V513.15H1802.05L1797 511.266V509.61L1802.06 507.714H1797V505.662H1805.42V508.086L1799.59 510.45L1805.42 512.79V515.202ZM1805.42 524.73H1797V522.678H1805.42V524.73ZM1797 539.753V537.701L1802.2 534.269H1797V532.217H1805.42V534.269L1800.2 537.701H1805.42V539.753H1797ZM1802.76 552.832C1803.04 552.68 1803.25 552.46 1803.4 552.172C1803.55 551.892 1803.62 551.56 1803.62 551.176C1803.62 550.512 1803.4 549.98 1802.96 549.58C1802.53 549.18 1801.95 548.98 1801.22 548.98C1800.45 548.98 1799.84 549.188 1799.4 549.604C1798.97 550.028 1798.75 550.608 1798.75 551.344C1798.75 551.848 1798.88 552.272 1799.14 552.616C1799.39 552.968 1799.76 553.224 1800.24 553.384V550.78H1801.75V555.244H1799.84C1799.33 555.092 1798.86 554.832 1798.42 554.464C1797.98 554.104 1797.62 553.644 1797.35 553.084C1797.08 552.524 1796.94 551.892 1796.94 551.188C1796.94 550.356 1797.12 549.612 1797.48 548.956C1797.85 548.308 1798.36 547.8 1799 547.432C1799.65 547.072 1800.39 546.892 1801.22 546.892C1802.06 546.892 1802.8 547.072 1803.44 547.432C1804.1 547.8 1804.61 548.308 1804.97 548.956C1805.34 549.604 1805.52 550.344 1805.52 551.176C1805.52 552.184 1805.28 553.032 1804.79 553.72C1804.3 554.416 1803.62 554.876 1802.76 555.1V552.832ZM1805.42 576.984H1803.78V574.752H1797V572.7H1803.78V570.468H1805.42V576.984ZM1798.49 589.258V586.114L1797 585.61V583.462L1805.42 586.51V588.886L1797 591.934V589.762L1798.49 589.258ZM1800.07 588.73L1803.16 587.686L1800.07 586.654V588.73ZM1805.42 602.017C1805.42 602.905 1805.25 603.681 1804.9 604.345C1804.54 605.009 1804.05 605.521 1803.41 605.881C1802.78 606.249 1802.04 606.433 1801.21 606.433C1800.39 606.433 1799.66 606.249 1799.02 605.881C1798.38 605.521 1797.88 605.005 1797.53 604.333C1797.18 603.669 1797 602.897 1797 602.017V598.861H1805.42V602.017ZM1798.78 601.885C1798.78 602.661 1798.99 603.265 1799.41 603.697C1799.84 604.129 1800.44 604.345 1801.21 604.345C1801.99 604.345 1802.59 604.129 1803.02 603.697C1803.46 603.265 1803.67 602.661 1803.67 601.885V600.913H1798.78V601.885ZM1805.42 615.596H1800.38C1799.88 615.596 1799.49 615.72 1799.22 615.968C1798.95 616.216 1798.81 616.58 1798.81 617.06C1798.81 617.54 1798.95 617.908 1799.22 618.164C1799.49 618.42 1799.88 618.548 1800.38 618.548H1805.42V620.6H1800.4C1799.64 620.6 1799.01 620.44 1798.49 620.12C1797.97 619.8 1797.58 619.368 1797.31 618.824C1797.05 618.288 1796.92 617.688 1796.92 617.024C1796.92 616.36 1797.04 615.764 1797.3 615.236C1797.56 614.716 1797.96 614.304 1798.48 614C1799 613.696 1799.64 613.544 1800.4 613.544H1805.42V615.596ZM1798.58 630.093V632.781H1797V628.041H1805.42V630.093H1798.58ZM1798.49 645.004V641.86L1797 641.356V639.208L1805.42 642.256V644.632L1797 647.68V645.508L1798.49 645.004ZM1800.07 644.476L1803.16 643.432L1800.07 642.4V644.476ZM1797 659.491L1800.72 656.659H1797V654.607H1805.42V656.659H1801.73L1805.42 659.467V661.879L1801.3 658.615L1797 661.999V659.491ZM1796.92 672.958C1796.92 672.166 1797.1 671.438 1797.47 670.774C1797.84 670.118 1798.35 669.594 1799 669.202C1799.67 668.818 1800.41 668.626 1801.24 668.626C1802.06 668.626 1802.8 668.818 1803.46 669.202C1804.11 669.594 1804.62 670.118 1804.99 670.774C1805.36 671.438 1805.54 672.166 1805.54 672.958C1805.54 673.75 1805.36 674.474 1804.99 675.13C1804.62 675.794 1804.11 676.314 1803.46 676.69C1802.8 677.074 1802.06 677.266 1801.24 677.266C1800.41 677.266 1799.67 677.074 1799 676.69C1798.35 676.306 1797.84 675.786 1797.47 675.13C1797.1 674.474 1796.92 673.75 1796.92 672.958ZM1798.79 672.958C1798.79 673.63 1799.01 674.166 1799.46 674.566C1799.91 674.974 1800.5 675.178 1801.24 675.178C1801.98 675.178 1802.57 674.974 1803.01 674.566C1803.46 674.166 1803.68 673.63 1803.68 672.958C1803.68 672.278 1803.46 671.734 1803.02 671.326C1802.58 670.926 1801.99 670.726 1801.24 670.726C1800.49 670.726 1799.9 670.926 1799.45 671.326C1799.01 671.734 1798.79 672.278 1798.79 672.958Z" fill="#2F518A"/>
<defs>
<clipPath id="clip0_99_50">
<rect width="1920" height="1080" fill="white"/>
</clipPath>
</defs>
</svg>
