<svg width="643" height="80" viewBox="0 0 643 80" fill="none" xmlns="http://www.w3.org/2000/svg">
<path d="M25.4128 44.84C28.7128 44.4 30.4361 44.1433 30.5828 44.07C30.8028 43.9233 31.0228 43.8133 31.2428 43.74C31.9028 43.5933 32.7828 43.19 33.8828 42.53C34.2495 42.4567 34.7261 42.2733 35.3128 41.98C35.8995 41.6867 36.6328 41.43 37.5128 41.21C38.4661 40.99 39.1261 40.77 39.4928 40.55C39.8595 40.33 40.5928 40.0367 41.6928 39.67C41.8395 39.5233 42.2061 38.57 42.7928 36.81C43.3795 34.9767 43.7461 33.9133 43.8928 33.62L42.9028 32.96C41.8761 32.96 39.7495 33.2533 36.5228 33.84C36.0828 34.06 33.5528 34.5367 28.9328 35.27C27.3928 38.79 26.6228 40.8433 26.6228 41.43C26.6228 42.0167 26.2195 43.1533 25.4128 44.84ZM0.442812 51.22C0.442812 50.6333 0.882812 50.1933 1.76281 49.9C1.76281 49.7533 2.27615 49.5333 3.30281 49.24C6.67615 48.5067 8.39948 48.03 8.47281 47.81C8.76615 47.6633 10.9295 47.04 14.9628 45.94C15.5495 45.72 15.9528 45.4267 16.1728 45.06C16.4661 44.6933 17.0895 43.4467 18.0428 41.32C18.5561 40.7333 18.8128 40.1833 18.8128 39.67C18.8861 39.1567 18.7395 38.9 18.3728 38.9C18.0795 38.9 16.5395 39.2667 13.7528 40C10.9661 40.66 8.36281 40.99 5.94281 40.99C3.52281 40.99 2.16615 40.2567 1.87281 38.79C1.50615 38.4967 1.32281 37.8733 1.32281 36.92C1.32281 35.8933 1.50615 35.1967 1.87281 34.83C2.23948 34.4633 3.30281 34.17 5.06281 33.95L12.5428 32.08C16.2828 30.6867 18.5561 29.8067 19.3628 29.44C20.1695 29 20.6461 28.7433 20.7928 28.67C21.0128 28.5967 21.3428 28.45 21.7828 28.23C22.2961 28.01 22.8095 27.79 23.3228 27.57C23.3961 27.2033 23.9461 25.48 24.9728 22.4C25.9995 19.32 26.6595 17.2667 26.9528 16.24C27.2461 15.6533 27.6861 15.14 28.2728 14.7C29.9595 10.0067 30.8395 7.62333 30.9128 7.55C31.0595 7.40333 31.3895 6.70667 31.9028 5.46C32.6361 3.26 33.6628 1.90333 34.9828 1.39C36.0828 1.39 36.9261 1.64666 37.5128 2.15999C38.0261 2.45333 38.7228 3.07666 39.6028 4.03C40.4828 4.98333 40.8861 5.75333 40.8128 6.34C40.8128 6.85333 40.1895 7.95333 38.9428 9.64C38.7228 10.3 38.3928 11.3267 37.9528 12.72C37.5128 14.04 37.1828 14.92 36.9628 15.36C36.6695 16.0933 36.1561 17.78 35.4228 20.42C33.8095 22.7667 33.0028 24.4533 33.0028 25.48C33.2961 25.6267 33.8828 25.6267 34.7628 25.48C35.7161 25.3333 36.2661 25.15 36.4128 24.93C36.7795 24.93 37.3295 24.6733 38.0628 24.16C38.3561 24.16 38.6861 24.05 39.0528 23.83C39.4928 23.5367 39.7495 23.3167 39.8228 23.17C41.0695 22.95 41.7295 22.8033 41.8028 22.73C45.1761 22.29 47.1561 21.3 47.7428 19.76C47.7428 18.5867 48.0361 17.4133 48.6228 16.24C49.2095 15.0667 49.4661 14.37 49.3928 14.15C49.3928 13.93 49.6128 13.0133 50.0528 11.4C50.7861 9.42 51.2261 8.02666 51.3728 7.21999C51.5928 6.41333 51.8861 5.9 52.2528 5.67999C52.6928 4.94666 52.9128 4.36 52.9128 3.92C53.2061 3.18667 53.6828 2.6 54.3428 2.15999C56.1028 1.28 57.6061 1.28 58.8528 2.15999C59.4395 2.45333 60.1361 2.96666 60.9428 3.69999C61.3095 3.69999 62.0795 4.17666 63.2528 5.13L64.4628 7.66C64.3161 7.80666 64.1328 8.13666 63.9128 8.65C63.7661 9.16333 63.6195 9.56667 63.4728 9.86C63.3261 10.08 62.9228 10.9967 62.2628 12.61C60.7961 16.4967 60.2095 18.4767 60.5028 18.55L66.1128 17.56L67.7628 18.22C70.7695 19.4667 72.4928 21.8133 72.9328 25.26C73.2995 26.2867 73.1161 26.9833 72.3828 27.35C71.9428 26.8367 70.1828 26.91 67.1028 27.57L55.6628 29.44C54.0495 35.6 53.2795 38.7167 53.3528 38.79C56.5061 38.79 59.1461 38.7167 61.2728 38.57C62.8128 38.2767 64.5361 38.7533 66.4428 40C67.3961 40.9533 67.9828 42.31 68.2028 44.07C68.4228 45.83 68.2761 47.2233 67.7628 48.25C66.0761 48.25 63.6561 48.6167 60.5028 49.35C55.0761 49.9367 51.9961 50.23 51.2628 50.23C50.5295 50.23 50.1261 50.3033 50.0528 50.45C50.0528 50.5233 48.9528 54.2267 46.7528 61.56C45.4328 67.6467 44.6995 71.2767 44.5528 72.45C44.4061 73.55 44.2228 74.3567 44.0028 74.87C43.7828 75.3833 43.2695 75.64 42.4628 75.64C41.7295 75.64 40.8495 75.53 39.8228 75.31C38.8695 75.1633 38.0628 74.98 37.4028 74.76C36.7428 74.54 36.4128 74.3567 36.4128 74.21C36.4128 74.0633 35.8995 73.8067 34.8728 73.44C34.8728 73.3667 34.5795 72.45 33.9928 70.69C33.9195 70.3967 33.9561 69.5533 34.1028 68.16C33.9561 65.8867 34.2495 63.8333 34.9828 62C35.5695 61.8533 35.8628 61.12 35.8628 59.8C36.1561 58.1133 36.4495 56.9767 36.7428 56.39C37.0361 55.73 37.1461 55.0333 37.0728 54.3C36.9995 53.5667 36.7428 53.2 36.3028 53.2C35.8628 53.2 34.8361 53.42 33.2228 53.86C31.6828 54.3 30.2895 54.6667 29.0428 54.96C26.1828 55.62 24.5695 55.95 24.2028 55.95C23.2495 56.0967 22.6261 56.3167 22.3328 56.61C22.1128 56.83 21.8928 57.49 21.6728 58.59C21.4528 59.69 21.0861 61.0467 20.5728 62.66C20.5728 62.9533 20.3528 63.9067 19.9128 65.52C19.4728 68.0867 18.8128 70.2867 17.9328 72.12L17.7128 73.66C17.7128 73.8067 17.6028 74.0633 17.3828 74.43C17.2361 74.7967 17.0528 75.1633 16.8328 75.53C16.6128 75.97 16.2095 76.19 15.6228 76.19C15.1095 76.19 14.4861 76.0433 13.7528 75.75C13.0928 75.53 12.5061 75.4933 11.9928 75.64C11.9195 75.5667 11.7728 75.4933 11.5528 75.42C10.8928 75.0533 10.2695 74.5767 9.68281 73.99C9.46281 73.99 9.05948 73.6233 8.47281 72.89C7.44615 71.79 7.40948 69.9933 8.36281 67.5C9.02281 65.4467 9.31615 64.2367 9.24281 63.87C9.38948 63.5033 9.86615 61.8533 10.6728 58.92C10.8195 58.7733 9.79281 58.8833 7.59281 59.25C5.39281 59.6167 4.25615 59.8 4.18281 59.8C3.15615 59.8 2.12948 58.8833 1.10281 57.05C0.442812 55.73 0.112812 54.85 0.112812 54.41C0.0394789 53.97 0.186146 53.4567 0.552812 52.87L0.442812 51.22ZM99.0836 27.46L100.844 23.72C101.21 22.6933 101.357 21.8867 101.284 21.3C101.284 20.7133 101.284 20.2367 101.284 19.87C101.284 19.5033 101.247 19.0633 101.174 18.55C101.1 17.9633 100.844 17.4133 100.404 16.9C100.037 16.3133 99.6336 15.9467 99.1936 15.8C98.8269 15.58 98.0936 15.25 96.9936 14.81L94.5736 14.7C92.3736 14.26 90.5036 14.4433 88.9636 15.25C88.9636 16.8633 88.5603 20.2367 87.7536 25.37L87.0936 32.96L86.5436 36.92C87.0569 36.92 88.3769 36.5167 90.5036 35.71L92.0436 34.39C92.3369 34.3167 93.2536 33.51 94.7936 31.97C95.1603 31.8233 95.5636 31.4567 96.0036 30.87L97.1036 29.55C97.3236 29.6233 97.7269 29.2567 98.3136 28.45L99.0836 27.46ZM86.3236 56.83L86.5436 59.47C86.8369 60.13 86.8369 61.0833 86.5436 62.33C86.2503 63.5767 86.2136 64.53 86.4336 65.19C86.4336 66.4367 86.4703 67.17 86.5436 67.39C87.2036 67.39 88.1936 67.0967 89.5136 66.51C90.9069 65.9233 91.7869 65.5933 92.1536 65.52C92.5203 65.4467 92.9969 65.1533 93.5836 64.64C95.4169 63.6867 97.3236 62.5867 99.3036 61.34L101.834 59.03C103.96 56.4633 105.427 54.5933 106.234 53.42L106.894 51.44C107.847 49.3867 106.93 47.4433 104.144 45.61C103.557 44.73 102.347 44.1433 100.514 43.85H100.404C97.8369 43.1167 96.3336 42.8233 95.8936 42.97L91.0536 44.07C90.1736 44.51 89.3669 44.73 88.6336 44.73C87.9736 44.73 87.2403 44.4 86.4336 43.74L86.5436 46.82C86.0303 48.2133 85.8836 49.57 86.1036 50.89C86.3969 52.21 86.4703 54.19 86.3236 56.83ZM91.1636 76.41H90.1736C89.4403 76.5567 88.0103 76.4467 85.8836 76.08C82.1436 75.4933 79.1369 74.32 76.8636 72.56C76.2036 71.9733 75.4336 71.2033 74.5536 70.25C73.7469 69.2233 73.3436 68.5267 73.3436 68.16C73.3436 67.7933 73.3436 67.3167 73.3436 66.73C73.4169 66.1433 73.3803 65.5567 73.2336 64.97V64.09C73.0136 63.65 73.0503 62.88 73.3436 61.78C73.6369 60.6067 73.7103 59.6533 73.5636 58.92C73.4169 57.9667 73.3069 56.94 73.2336 55.84C73.0136 55.5467 73.1236 54.74 73.5636 53.42C74.1503 43.52 74.4436 38.0933 74.4436 37.14L74.9936 33.84C74.6269 31.64 74.7003 29.7333 75.2136 28.12V25.7C75.1403 24.6733 75.4336 21.7033 76.0936 16.79C75.8003 15.91 74.8103 14.7733 73.1236 13.38C72.7569 13.0133 72.3903 12.4633 72.0236 11.73C71.6569 10.9233 71.8036 9.67666 72.4636 7.99C72.9036 7.40333 74.1869 6.45 76.3136 5.13C76.4603 4.69 78.4403 3.84666 82.2536 2.6L84.3436 1.72C85.3703 1.35333 87.4236 1.20666 90.5036 1.28C92.1903 1.5 93.5469 1.83 94.5736 2.27C98.3136 4.10333 101.76 6.19333 104.914 8.54C105.867 8.98 106.527 9.56666 106.894 10.3C108.214 11.18 109.424 12.61 110.524 14.59C111.697 16.4967 112.357 17.7067 112.504 18.22C112.87 20.5667 112.504 23.39 111.404 26.69C110.89 28.3767 108.47 31.8967 104.144 37.25C104.877 37.47 106.124 38.0933 107.884 39.12C108.104 39.4133 108.874 39.9267 110.194 40.66C110.34 40.88 110.524 41.1367 110.744 41.43C111.037 41.7233 111.257 41.98 111.404 42.2L112.284 42.75L113.384 44.4L115.034 45.83C115.767 46.5633 116.354 47.37 116.794 48.25C117.894 49.2767 118.48 50.12 118.554 50.78L118.774 52.87C118.7 53.6767 117.6 56.3167 115.474 60.79C114.667 62.4033 113.64 63.65 112.394 64.53L110.744 66.51C110.304 67.0967 109.46 67.83 108.214 68.71C107.04 69.59 106.05 70.4333 105.244 71.24C104.877 71.3867 104.29 71.7167 103.484 72.23C102.75 72.7433 101.614 73.3667 100.074 74.1C98.6069 74.8333 97.6169 75.2733 97.1036 75.42C95.6369 75.86 93.6569 76.19 91.1636 76.41ZM141.15 43.3C141.297 43.1533 142.14 43.0067 143.68 42.86C145.293 42.64 147.163 41.98 149.29 40.88C149.363 40.88 149.327 40 149.18 38.24C148.96 35.16 148.777 32.96 148.63 31.64C148.483 29.88 148.337 28.6333 148.19 27.9C148.19 26.5067 147.64 23.61 146.54 19.21L141.7 35.6C140.673 40.1467 140.27 42.9333 140.49 43.96L141.15 43.3ZM126.3 46.49L126.96 41.65C126.96 40.6967 127.107 39.7433 127.4 38.79C127.4 37.5433 128.023 35.6733 129.27 33.18C129.27 33.0333 129.6 32.08 130.26 30.32C130.26 30.1733 130.957 28.01 132.35 23.83L133.67 20.64C133.67 20.3467 133.853 19.7967 134.22 18.99C134.587 18.11 134.843 17.2667 134.99 16.46C135.21 15.58 135.467 14.7367 135.76 13.93C136.787 11.95 137.703 10.2633 138.51 8.87C140.05 5.93666 142.91 4.61666 147.09 4.91L150.61 5.23999C152.81 5.82666 154.497 6.45 155.67 7.11C157.357 7.77 158.493 8.50333 159.08 9.30999C159.667 10.0433 159.923 11.29 159.85 13.05C159.923 13.93 160.143 17.7433 160.51 24.49C160.877 31.2367 161.06 34.6467 161.06 34.72L161.61 39.45C161.61 39.89 162.417 45.17 164.03 55.29L166.45 62.99C167.917 67.0967 168.687 69.26 168.76 69.48C168.907 69.6267 169.237 70.3967 169.75 71.79C170.557 74.21 169.86 75.8233 167.66 76.63C165.68 76.9233 164.213 76.74 163.26 76.08C162.893 76.08 162.05 75.75 160.73 75.09C160.583 74.7233 160.143 74.3567 159.41 73.99C158.75 73.6967 158.31 73.44 158.09 73.22C157.283 73 156.55 71.8633 155.89 69.81C155.67 69.6633 155.267 69.0767 154.68 68.05C154.167 67.0233 154.02 66.18 154.24 65.52C153.727 64.86 153.47 63.5033 153.47 61.45C152.81 60.35 152.48 58.6267 152.48 56.28C152.48 53.9333 152.113 52.1 151.38 50.78C147.64 52.4667 143.643 53.3833 139.39 53.53C138.583 53.53 138.18 53.6767 138.18 53.97C138.18 54.63 137.96 55.8033 137.52 57.49L135.65 69.59C136.383 75.0167 135.723 77.8767 133.67 78.17C133.083 78.17 132.093 78.3167 130.7 78.61C129.38 78.9033 128.28 78.6467 127.4 77.84C125.713 76.8867 124.503 75.8967 123.77 74.87C123.11 73.9167 122.817 72.8167 122.89 71.57C122.963 70.5433 123.147 68.3433 123.44 64.97C123.587 64.8233 123.623 64.0167 123.55 62.55C123.55 61.01 123.66 59.8367 123.88 59.03L125.64 52.21C125.86 52.0633 126.153 50.9633 126.52 48.91C126.447 48.7633 126.41 48.3967 126.41 47.81L126.3 46.49ZM191.728 36.04C191.801 34.28 191.801 33.2167 191.728 32.85C191.728 32.4833 191.728 32.2267 191.728 32.08L192.058 29.11C192.058 28.01 191.984 27.1667 191.838 26.58C191.911 26.2867 191.948 25.7 191.948 24.82C192.094 24.5267 192.168 24.1233 192.168 23.61C192.168 23.0233 192.351 20.8967 192.718 17.23C191.104 17.5967 190.041 17.8533 189.528 18L185.128 18.22C183.148 18.8067 181.718 19.1 180.838 19.1C178.784 19.6867 177.574 19.9433 177.208 19.87C175.374 20.0167 174.164 19.87 173.578 19.43C172.771 18.4767 172.368 17.12 172.368 15.36C172.074 13.82 172.038 12.7933 172.258 12.28C173.064 11.18 173.578 10.5567 173.798 10.41C174.091 10.19 174.751 9.97 175.778 9.74999C176.804 9.53 177.794 9.01666 178.748 8.20999L184.688 5.79C184.688 5.79 185.531 5.64333 187.218 5.35C188.978 4.98333 190.298 4.58 191.178 4.13999C191.544 4.13999 192.351 4.03 193.598 3.81C194.844 3.59 195.614 3.51666 195.908 3.59C196.201 3.59 196.714 3.37 197.448 2.93L204.488 2.27C204.561 2.34333 204.964 2.41666 205.698 2.49C206.798 2.63666 208.154 2.45333 209.768 1.94C210.941 2.08666 211.931 2.12333 212.738 2.05C213.104 2.19666 214.204 1.97667 216.038 1.39C216.478 1.39 216.881 1.35333 217.248 1.28C217.614 1.13333 218.458 0.913328 219.778 0.619994C220.584 0.619994 221.244 0.803327 221.758 1.16999C222.124 1.09666 222.528 1.31666 222.968 1.83C223.481 2.34333 223.994 3.04 224.508 3.92C225.681 5.68 226.378 6.70666 226.598 7C227.551 8.54 228.174 10.1167 228.468 11.73C228.761 12.3167 228.834 12.72 228.688 12.94C228.541 13.16 228.028 13.3433 227.148 13.49C226.781 13.1967 226.341 13.0867 225.828 13.16C225.314 13.16 223.738 13.3433 221.098 13.71L219.228 13.6C217.468 14.04 215.231 14.26 212.518 14.26L205.698 14.48L205.038 14.81C204.598 20.2367 204.451 23.7567 204.598 25.37C204.964 28.1567 205.074 29.6233 204.928 29.77V31.97C205.661 45.17 206.064 52.0267 206.138 52.54C206.284 53.0533 206.358 54.08 206.358 55.62L207.128 64.53C207.568 65.0433 207.824 65.8867 207.898 67.06C207.971 68.6 207.568 69.5167 206.688 69.81C205.148 70.3233 203.901 70.8 202.948 71.24C201.994 71.6067 200.491 71.6433 198.438 71.35C198.438 71.13 197.594 70.7633 195.908 70.25C195.908 70.1767 195.431 69.6267 194.478 68.6C194.184 68.2333 194.038 67.72 194.038 67.06C193.598 65.3 193.378 62.9533 193.378 60.02C192.938 57.9667 192.864 56.4267 193.158 55.4C193.084 55.3267 192.828 54.08 192.388 51.66V47.59C192.388 47.0033 192.204 46.4167 191.838 45.83L191.728 42.42V36.04ZM243.38 30.43C243.16 30.65 243.013 31.2733 242.94 32.3L242.39 39.01C242.316 39.0833 242.28 42.2733 242.28 48.58C242.573 49.5333 242.976 51.3667 243.49 54.08L244.92 56.61C245.213 56.7567 245.653 57.4167 246.24 58.59C246.753 58.9567 247.046 59.2133 247.12 59.36C247.193 59.5067 247.303 59.69 247.45 59.91C247.596 60.13 247.67 60.2767 247.67 60.35L248.33 60.46C248.403 60.46 248.733 60.6067 249.32 60.9C251.446 62.22 253.536 61.78 255.59 59.58C256.47 58.5533 257.313 57.6367 258.12 56.83C258.706 55.95 259.44 55.29 260.32 54.85C262.886 53.0167 264.976 53.1633 266.59 55.29C266.956 55.8767 266.956 57.27 266.59 59.47C266.296 61.5967 265.196 63.9067 263.29 66.4C262.19 68.2333 260.796 69.6633 259.11 70.69C258.963 71.13 256.176 71.4233 250.75 71.57L248.99 71.24C248.403 71.3867 246.57 70.9833 243.49 70.03L242.06 69.7C241.473 69.7 240.886 69.48 240.3 69.04C239.786 68.6 238.87 67.94 237.55 67.06C236.23 66.1067 235.203 65.3367 234.47 64.75C232.343 63.0633 230.84 60.9733 229.96 58.48C229.666 57.9667 229.483 57.27 229.41 56.39C229.41 55.4367 229.3 54.74 229.08 54.3C228.493 53.7133 228.236 52.7967 228.31 51.55C228.456 50.23 228.456 48.8367 228.31 47.37V46.49C228.31 45.6833 228.346 45.17 228.42 44.95C228.126 44.6567 228.016 44.0333 228.09 43.08C228.456 38.3133 228.64 35.6367 228.64 35.05C228.786 34.7567 228.823 34.2067 228.75 33.4C228.75 32.5933 228.86 31.64 229.08 30.54C228.713 29.8067 228.713 28.8533 229.08 27.68L229.3 24.38C229.373 23.28 229.556 22.29 229.85 21.41C230.216 20.4567 230.546 19.3567 230.84 18.11C231.206 16.79 232.27 14.8833 234.03 12.39C234.03 11.8033 234.58 11.1067 235.68 10.3C235.68 10.0067 235.973 9.56667 236.56 8.98C237.22 8.39333 238.21 7.44 239.53 6.12C239.896 5.53333 240.74 4.94666 242.06 4.36C243.38 3.7 244.626 3.00333 245.8 2.27C246.386 2.05 247.45 1.94 248.99 1.94C249.87 1.57333 251.776 1.68333 254.71 2.27C256.103 2.27 258.45 2.89333 261.75 4.13999C261.823 4.21333 262.006 4.36 262.3 4.58C262.593 4.72666 262.96 4.94666 263.4 5.23999C264.72 6.12 265.453 6.56 265.6 6.56C268.46 8.98 270.073 12.1333 270.44 16.02C270.806 17.9267 270.806 19.3933 270.44 20.42C270.44 21.52 269.89 23.28 268.79 25.7L267.36 27.57H266.59C261.676 28.3033 258.34 27.46 256.58 25.04C256.36 24.6 256.25 24.1967 256.25 23.83C256.323 23.4633 256.433 23.1333 256.58 22.84C257.02 21.6667 257.24 21.08 257.24 21.08C258.266 18.9533 258.266 16.9733 257.24 15.14C257.24 14.92 256.873 14.5533 256.14 14.04C255.48 13.4533 255.113 13.0867 255.04 12.94C254.233 12.3533 253.353 12.17 252.4 12.39C250.493 13.1233 248.916 15.2867 247.67 18.88C246.423 20.2 245.286 22.6567 244.26 26.25C244.26 26.7633 244.113 27.46 243.82 28.34C243.526 29.1467 243.38 29.8433 243.38 30.43ZM280.049 54.19C280.196 53.97 280.196 53.4567 280.049 52.65C279.756 50.01 279.719 48.1767 279.939 47.15C279.646 43.19 279.536 40.88 279.609 40.22C279.756 39.56 279.976 39.1933 280.269 39.12C279.976 38.68 279.682 37.0667 279.389 34.28C279.169 31.4933 279.132 29.6233 279.279 28.67C279.132 28.0833 279.096 27.3867 279.169 26.58C279.242 25.7 279.352 25.1133 279.499 24.82C279.352 24.6733 279.242 24.1233 279.169 23.17V18.22L279.389 15.36V12.94L280.049 9.53C279.829 9.16333 280.012 8.50333 280.599 7.55C279.866 6.00999 280.636 4.10333 282.909 1.83C282.982 1.68333 283.826 1.20666 285.439 0.399997C286.759 0.326665 287.639 0.326665 288.079 0.399997C288.592 0.47333 289.326 0.546662 290.279 0.619994C291.306 0.693331 292.076 0.803332 292.589 0.949997C293.909 1.39 294.569 2.56333 294.569 4.47V6.34C294.716 8.98 294.789 10.96 294.789 12.28V14.7C294.789 15.6533 294.716 16.2033 294.569 16.35C294.642 16.6433 294.642 17.34 294.569 18.44V20.31C294.349 22.5833 294.276 23.9033 294.349 24.27L293.579 30.1C294.166 30.32 296.256 30.43 299.849 30.43H305.349C308.576 30.43 310.592 30.43 311.399 30.43C312.279 30.3567 312.829 30.1 313.049 29.66C313.342 29.22 313.562 28.6333 313.709 27.9C313.856 27.1667 313.966 26.3233 314.039 25.37C314.112 24.4167 314.186 23.83 314.259 23.61C314.699 23.2433 314.809 21.6667 314.589 18.88C314.589 18.66 314.736 18.11 315.029 17.23C315.029 16.2033 315.176 15.03 315.469 13.71C315.469 12.3167 315.689 11.1067 316.129 10.08C316.642 8.98 317.009 8.06333 317.229 7.33C317.596 6.08333 318.476 5.02 319.869 4.13999C321.702 2.81999 323.462 1.97666 325.149 1.60999H327.129C329.109 1.97666 329.769 3.84666 329.109 7.21999C329.109 8.32 328.816 9.75 328.229 11.51C327.569 14.9567 327.239 17.1933 327.239 18.22C327.239 19.2467 326.946 21.1167 326.359 23.83C326.506 25.2233 326.506 26.14 326.359 26.58C326.286 27.02 326.249 27.57 326.249 28.23C326.102 29.8433 326.029 30.9433 326.029 31.53C325.882 33.73 325.809 35.49 325.809 36.81C325.809 38.13 325.699 39.56 325.479 41.1C325.479 42.64 325.222 44.2167 324.709 45.83L324.379 52.87C324.379 53.3833 324.636 57.16 325.149 64.2C325.589 64.64 325.736 65.52 325.589 66.84C325.442 68.0867 325.186 68.9667 324.819 69.48C324.452 69.9933 324.049 70.2867 323.609 70.36C323.242 70.4333 322.656 70.47 321.849 70.47C320.162 71.4233 318.806 71.79 317.779 71.57C316.899 71.57 315.982 71.2767 315.029 70.69C313.489 69.8833 312.499 68.8933 312.059 67.72C312.059 67.2067 311.949 66.5833 311.729 65.85C311.582 65.1167 311.582 64.3467 311.729 63.54C311.876 62.66 311.912 61.7433 311.839 60.79C311.839 59.8367 311.839 58.7367 311.839 57.49L311.949 56.17C311.802 55.8767 311.876 55.4 312.169 54.74C312.462 54.08 312.499 53.5667 312.279 53.2V50.23L312.829 44.62C312.096 44.1067 312.059 42.8967 312.719 40.99L312.939 40.11C312.059 40.33 311.252 40.44 310.519 40.44C308.466 40.9533 306.192 41.21 303.699 41.21L293.799 40.88V42.09C293.652 43.2633 293.616 45.0233 293.689 47.37V49.46C293.762 51.3667 293.799 54.08 293.799 57.6C294.092 61.4133 294.239 64.1633 294.239 65.85L294.129 66.62C294.129 67.2067 294.056 67.72 293.909 68.16C293.909 69.5533 293.542 70.5067 292.809 71.02C292.149 71.5333 291.049 71.8633 289.509 72.01C287.969 72.1567 286.576 71.7533 285.329 70.8C283.569 69.92 282.652 69.1867 282.579 68.6C282.506 68.0133 282.286 67.2433 281.919 66.29C281.552 65.7033 281.296 65.0067 281.149 64.2C281.149 61.8533 281.112 60.5333 281.039 60.24C280.819 59.9467 280.709 59.4333 280.709 58.7C280.709 57.7467 280.489 56.2433 280.049 54.19ZM386.16 28.45L385.72 26.58C385.72 21.6667 385.17 18.2567 384.07 16.35C383.924 16.2767 383.814 16.24 383.74 16.24C383.374 16.24 383.117 16.68 382.97 17.56C382.09 19.32 381.284 21.74 380.55 24.82C380.257 25.1133 379.927 26.2133 379.56 28.12C378.46 33.0333 377.617 36.0767 377.03 37.25L376.81 38.9C376.297 40.5867 376.26 41.6867 376.7 42.2C376.7 41.9067 378.24 41.43 381.32 40.77C384.4 40.11 386.014 39.7433 386.16 39.67C386.307 39.5967 386.344 39.23 386.27 38.57C386.27 37.91 386.49 36.8833 386.93 35.49C387.077 35.4167 386.967 35.16 386.6 34.72C386.307 34.2067 386.197 33.4367 386.27 32.41C386.124 31.97 386.05 31.3467 386.05 30.54C386.124 29.7333 386.16 29.0367 386.16 28.45ZM397.6 29.22L397.82 30.87C398.26 31.0167 398.407 31.31 398.26 31.75C398.114 32.19 398.077 32.8133 398.15 33.62C398.37 36.5533 398.737 38.79 399.25 40.33C399.25 41.21 399.397 42.3467 399.69 43.74C400.057 45.06 400.204 45.7567 400.13 45.83C400.057 45.9033 400.02 46.1967 400.02 46.71V47.81C399.58 46.8567 399.544 47.59 399.91 50.01C400.204 50.5967 400.424 51.5133 400.57 52.76C400.79 54.0067 401.23 56.2067 401.89 59.36C403.284 64.86 403.98 67.9033 403.98 68.49C403.98 69.0033 403.76 69.8833 403.32 71.13C402.88 72.3033 402.22 73.1467 401.34 73.66L396.39 73.99C395.29 73.6967 393.934 72.8533 392.32 71.46C391.367 70.5067 390.78 69.4433 390.56 68.27L389.24 64.53C389.167 64.09 389.13 63.43 389.13 62.55C389.057 62.4767 388.947 62 388.8 61.12C388.947 60.7533 388.764 60.02 388.25 58.92V56.94C388.47 56.5733 388.324 55.8767 387.81 54.85L387.26 51.33C387.407 51.0367 386.967 50.4133 385.94 49.46C385.207 49.8267 384.254 50.12 383.08 50.34H379.56C378.167 50.34 376.994 50.3767 376.04 50.45C375.527 50.45 375.27 51.9167 375.27 54.85C375.197 55.07 375.014 55.5833 374.72 56.39C374.72 56.7567 374.574 57.3433 374.28 58.15C373.987 58.9567 373.84 59.6533 373.84 60.24C373.84 60.7533 373.767 61.12 373.62 61.34C373.254 62.0733 372.74 63.8333 372.08 66.62C371.42 69.3333 370.907 71.13 370.54 72.01C370.247 72.89 370.21 73.44 370.43 73.66C370.504 73.88 370.394 74.2467 370.1 74.76C369.807 75.2733 369.477 75.64 369.11 75.86C368.304 75.86 367.424 75.6767 366.47 75.31C365.517 74.9433 364.38 74.76 363.06 74.76C362.107 74.6133 361.264 73.66 360.53 71.9C360.384 71.3867 360.274 70.9467 360.2 70.58C360.347 70.36 360.457 69.81 360.53 68.93C360.017 68.5633 359.76 67.8667 359.76 66.84L359.87 65.3C359.87 64.64 360.054 64.0167 360.42 63.43C360.347 63.43 360.494 62.8067 360.86 61.56C360.42 61.2667 360.677 59.03 361.63 54.85C361.63 53.8233 361.96 52.32 362.62 50.34C362.914 49.02 363.06 48.14 363.06 47.7C363.134 47.04 363.207 46.6367 363.28 46.49C363.354 46.27 363.427 46.0133 363.5 45.72C364.307 43.52 364.747 42.0167 364.82 41.21C364.894 40.33 365.48 38.57 366.58 35.93C366.8 35.49 366.91 34.83 366.91 33.95C366.91 33.07 367.02 32.3733 367.24 31.86C367.46 31.3467 367.644 30.76 367.79 30.1C368.01 29.44 368.304 28.7433 368.67 28.01C368.45 27.79 368.524 27.0567 368.89 25.81C368.89 25.37 369.184 24.4533 369.77 23.06C370.357 21.5933 370.65 20.6767 370.65 20.31C370.724 19.87 370.797 19.5767 370.87 19.43C371.017 19.21 371.164 18.88 371.31 18.44C371.457 18 371.677 17.5233 371.97 17.01C372.264 16.4967 372.41 16.0567 372.41 15.69C372.484 15.3233 372.704 14.7 373.07 13.82C373.07 13.3067 373.18 12.6467 373.4 11.84C373.62 11.62 374.097 10.9233 374.83 9.74999C374.83 9.31 375.454 8.61333 376.7 7.66C378.02 6.70666 378.827 6.04666 379.12 5.67999L384.84 4.8C384.914 4.21333 385.354 3.33333 386.16 2.15999C388.434 1.06 390.744 0.693329 393.09 1.06C393.164 1.06 393.31 1.09666 393.53 1.16999C393.824 1.24333 394.154 1.31667 394.52 1.39C394.96 1.46333 395.437 1.57333 395.95 1.72C396.537 1.86666 396.83 2.38 396.83 3.26L396.72 16.35C396.867 16.9367 396.977 18.4767 397.05 20.97C397.197 23.39 397.417 25.15 397.71 26.25C397.71 27.9367 397.674 28.9267 397.6 29.22ZM429.038 21.96C429.111 22.7667 429.148 23.4267 429.148 23.94L429.258 25.92L430.028 42.97L429.918 44.84C430.065 44.9867 430.321 45.06 430.688 45.06C432.155 45.06 433.475 44.73 434.648 44.07C434.868 43.7033 435.381 43.3367 436.188 42.97C436.481 42.6767 436.811 42.4567 437.178 42.31C437.178 42.1633 437.545 41.9067 438.278 41.54C438.718 40.9533 439.231 40.4767 439.818 40.11C440.405 39.67 440.735 39.3767 440.808 39.23C442.568 36.9567 443.778 34.17 444.438 30.87C444.658 29.99 444.768 29.1467 444.768 28.34C444.915 27.5333 444.915 26.69 444.768 25.81C444.621 24.8567 444.548 23.83 444.548 22.73C444.328 21.19 444.071 20.0167 443.778 19.21C443.411 18.6967 443.155 18.0367 443.008 17.23C441.981 15.3967 440.478 14.0767 438.498 13.27C437.985 13.05 437.251 12.9767 436.298 13.05L435.088 12.83C433.475 12.83 431.751 13.0133 429.918 13.38C428.085 13.7467 427.131 14.1867 427.058 14.7C427.058 14.8467 427.168 14.9567 427.388 15.03C427.755 15.03 428.195 15.5067 428.708 16.46L429.038 18.99V21.96ZM424.858 3.14999L428.268 2.70999C428.708 2.70999 429.295 2.78333 430.028 2.93C431.055 2.93 432.228 3.04 433.548 3.26C436.848 3.26 439.231 3.51667 440.698 4.03C442.238 4.54333 443.961 5.02 445.868 5.46C447.775 5.9 450.378 7.25666 453.678 9.53L454.888 10.74C455.035 10.74 455.218 10.85 455.438 11.07C455.731 11.29 455.951 11.4367 456.098 11.51C457.491 14.0033 458.298 16.6433 458.518 19.43C458.665 19.9433 458.701 20.42 458.628 20.86V22.51C458.848 23.0967 458.921 23.8667 458.848 24.82C458.775 25.7733 458.665 26.3967 458.518 26.69C458.518 27.4967 458.408 28.0833 458.188 28.45C458.041 28.8167 457.968 29.11 457.968 29.33C457.968 29.4767 457.711 30.5033 457.198 32.41C456.758 34.2433 456.428 35.4167 456.208 35.93C455.988 36.4433 454.668 38.1667 452.248 41.1C450.781 42.5667 449.865 43.5933 449.498 44.18L448.068 46.49C444.401 51.33 438.975 53.53 431.788 53.09C431.641 53.0167 431.091 52.98 430.138 52.98L430.248 60.02L430.138 65.63V67.5C430.138 68.4533 430.065 69.2233 429.918 69.81C429.845 70.3967 429.808 71.02 429.808 71.68C429.735 72.7067 429.625 73.33 429.478 73.55C428.891 74.87 427.828 75.53 426.288 75.53C423.428 75.53 421.851 75.3467 421.558 74.98C421.485 74.98 420.751 74.65 419.358 73.99C418.185 73.2567 417.415 72.3033 417.048 71.13C416.315 68.8567 416.058 67.06 416.278 65.74C416.425 64.7133 416.425 62.44 416.278 58.92C416.058 58.3333 415.948 57.6 415.948 56.72C416.095 56.4267 416.168 55.7667 416.168 54.74V52.87C416.608 49.0567 416.828 46.7467 416.828 45.94C416.828 45.1333 416.901 44.5833 417.048 44.29C417.195 43.9233 417.268 42.0533 417.268 38.68C417.268 34.7933 417.048 31.53 416.608 28.89L416.498 27.24C416.498 26.2133 416.425 25.1867 416.278 24.16V23.06L415.948 18.44C415.948 17.78 415.838 17.2667 415.618 16.9C415.398 16.7533 414.738 16.46 413.638 16.02C412.611 15.58 411.731 15.0667 410.998 14.48C410.338 13.8933 410.081 12.94 410.228 11.62C410.375 9.71333 411.475 8.24666 413.528 7.21999C413.455 7.21999 413.565 7.03666 413.858 6.67C414.225 6.30333 414.775 5.97333 415.508 5.67999C416.315 5.31333 417.048 4.94666 417.708 4.58C419.541 4.06666 420.861 3.81 421.668 3.81C422.548 3.81 423.611 3.59 424.858 3.14999ZM477.528 44.95C477.968 50.23 478.188 53.53 478.188 54.85C479.508 58.9567 481.342 61.8167 483.688 63.43C483.908 63.65 484.752 64.0167 486.218 64.53L489.078 65.08C489.518 65.08 489.885 64.9333 490.178 64.64C490.545 64.5667 490.912 64.3467 491.278 63.98C491.792 63.32 492.305 62.7333 492.818 62.22C493.332 61.7067 493.515 61.45 493.368 61.45C493.662 61.1567 493.772 60.68 493.698 60.02C493.845 59.8733 494.138 59.36 494.578 58.48C495.238 54.3733 495.935 51.7333 496.668 50.56C496.815 46.82 496.888 44.7667 496.888 44.4C496.815 41.1733 495.862 37.3967 494.028 33.07C493.295 32.3367 492.745 29.11 492.378 23.39C491.938 22.29 491.682 21.3367 491.608 20.53C491.535 19.65 491.242 18.66 490.728 17.56C490.288 16.46 489.958 15.7267 489.738 15.36C489.518 14.9933 489.372 14.7 489.298 14.48C489.152 13.2333 488.602 12.4633 487.648 12.17C486.548 11.73 485.155 13.05 483.468 16.13L482.588 17.56C482.515 17.9267 482.222 18.55 481.708 19.43C481.708 19.5767 481.378 20.97 480.718 23.61C480.132 26.1767 479.728 27.9 479.508 28.78C479.288 29.66 479.215 30.2467 479.288 30.54C479.362 30.8333 478.995 32.3367 478.188 35.05V37.58C478.262 37.7267 478.152 38.4967 477.858 39.89C477.638 41.21 477.528 42.8967 477.528 44.95ZM474.118 5.9C474.192 5.53333 474.962 4.91 476.428 4.03C477.968 3.14999 479.288 2.48999 480.388 2.05C483.468 0.876664 487.465 0.949999 492.378 2.27C493.258 2.49 494.432 3.11333 495.898 4.13999C496.045 4.13999 496.228 4.21333 496.448 4.36C497.255 4.8 497.805 5.09333 498.098 5.23999C499.345 5.89999 500.665 7.40333 502.058 9.74999C503.525 12.0967 504.295 13.7467 504.368 14.7C504.515 15.58 504.955 17.1567 505.688 19.43C506.788 22.07 507.338 24.1233 507.338 25.59C507.412 26.9833 507.668 28.78 508.108 30.98C508.622 33.1067 508.842 34.7567 508.768 35.93C508.768 46.1233 507.742 53.64 505.688 58.48C505.248 61.78 504.478 63.87 503.378 64.75C502.865 68.4167 501.472 70.8 499.198 71.9C498.978 72.12 497.475 72.5233 494.688 73.11C490.435 73.99 487.465 74.5033 485.778 74.65C484.165 74.87 482.405 74.7233 480.498 74.21C478.665 73.6967 477.492 73.4033 476.978 73.33C476.465 73.33 475.585 72.9633 474.338 72.23C471.772 70.69 470.268 69.4433 469.828 68.49L468.728 66.73C462.568 70.91 462.385 70.5067 468.178 65.52C467.298 64.7133 466.528 63.32 465.868 61.34C465.575 59.8 465.208 58.7 464.768 58.04C464.328 57.0867 463.962 56.2433 463.668 55.51C463.742 54.9967 463.778 54.08 463.778 52.76L463.668 51.66C463.302 50.4867 463.338 49.4233 463.778 48.47C463.852 47.9567 463.888 47.37 463.888 46.71C463.888 46.05 463.962 44.8767 464.108 43.19L463.998 41.76C464.585 39.7067 464.842 38.24 464.768 37.36C464.695 36.4067 464.768 35.0867 464.988 33.4C465.208 31.7133 465.282 30.43 465.208 29.55C465.208 28.5967 465.355 27.7533 465.648 27.02C465.942 26.2133 466.125 25.7 466.198 25.48C466.198 25.3333 466.272 25.0767 466.418 24.71C466.272 22.8767 466.748 21.1533 467.848 19.54C468.802 17.12 469.315 15.7267 469.388 15.36L470.818 12.17C471.918 9.31 473.018 7.22 474.118 5.9ZM531.349 47.04L530.909 51.66V51.99C530.689 53.75 530.579 55.0333 530.579 55.84C530.066 59.2133 530.506 62.2933 531.899 65.08C531.899 65.3733 532.413 65.9967 533.439 66.95C533.733 67.0233 534.026 67.0967 534.319 67.17C534.686 67.2433 534.979 67.3533 535.199 67.5C535.419 67.5733 535.933 67.5367 536.739 67.39C537.546 67.2433 538.059 67.0967 538.279 66.95C538.573 66.8033 539.123 66.4 539.929 65.74C541.029 64.64 541.946 63.98 542.679 63.76C544.293 62.2933 545.649 61.1933 546.749 60.46C547.923 60.24 548.693 60.2033 549.059 60.35C549.426 60.4233 549.939 60.9 550.599 61.78C551.479 62.8067 551.516 64.2733 550.709 66.18C550.343 67.72 549.609 69.1133 548.509 70.36C547.409 71.6067 546.493 72.45 545.759 72.89L545.099 73.77L542.899 75.86C542.459 75.86 542.093 76.1533 541.799 76.74C541.799 76.96 540.919 77.4 539.159 78.06C534.466 77.4 531.459 76.8133 530.139 76.3L527.499 75.2C526.986 75.0533 526.363 74.6133 525.629 73.88L523.539 72.56C523.393 72.1933 522.733 71.7533 521.559 71.24L518.589 67.61L517.489 65.63C517.343 65.2633 517.159 63.9433 516.939 61.67C517.013 61.45 517.049 60.6433 517.049 59.25C517.269 58.59 517.379 57.82 517.379 56.94C517.599 56.6467 517.636 55.8767 517.489 54.63L517.709 52.1C517.709 50.9267 518.223 48.2867 519.249 44.18C519.249 43.52 519.396 42.6767 519.689 41.65C519.396 41.0633 519.506 39.23 520.019 36.15C520.019 35.49 520.093 34.6467 520.239 33.62C520.239 29.66 520.606 26.5067 521.339 24.16C521.339 23.2067 521.559 22.18 521.999 21.08C522.513 19.9067 522.806 19.1733 522.879 18.88C523.026 18.5867 523.099 18.22 523.099 17.78C523.173 17.7067 523.319 17.0467 523.539 15.8C523.979 15.2867 524.273 14.2967 524.419 12.83C524.493 12.9033 524.529 12.9033 524.529 12.83C524.529 12.6833 524.713 11.9133 525.079 10.52C525.079 9.56666 525.519 8.57666 526.399 7.55C526.546 7.11 527.206 6.63333 528.379 6.12H528.489C528.856 5.9 529.626 5.79 530.799 5.79C532.046 5.71666 533.513 6.00999 535.199 6.67C535.713 6.67 536.739 7.25666 538.279 8.43C539.086 9.53 538.719 11.8767 537.179 15.47C536.593 17.23 536.263 18.1833 536.189 18.33C536.189 19.1367 535.273 23.61 533.439 31.75C533.439 32.2633 533.366 32.6667 533.219 32.96C532.926 33.6933 532.779 34.4267 532.779 35.16C532.193 37.8 531.716 41.76 531.349 47.04ZM570.983 50.34C570.909 50.6333 570.873 51.22 570.873 52.1C570.873 52.98 570.799 53.75 570.653 54.41C570.506 55.07 570.506 55.8767 570.653 56.83C570.946 58.15 571.569 59.7633 572.523 61.67C572.523 61.89 573.073 62.4767 574.173 63.43C574.466 63.5033 574.759 63.5767 575.053 63.65C575.419 63.7233 575.713 63.8333 575.933 63.98C576.153 64.0533 576.666 64.0167 577.473 63.87C578.279 63.65 578.793 63.4667 579.013 63.32C579.306 63.1 579.856 62.66 580.663 62C581.469 60.9733 582.349 60.2767 583.303 59.91C584.696 58.59 586.016 57.4533 587.263 56.5C588.436 56.28 589.206 56.2067 589.573 56.28C589.939 56.3533 590.343 56.6467 590.783 57.16C591.809 58.3333 592.103 59.8367 591.663 61.67C591.076 63.7233 589.976 65.6667 588.363 67.5C588.069 68.0133 587.519 68.49 586.713 68.93C586.566 69.0767 586.346 69.4067 586.053 69.92L583.963 72.01C583.523 72.01 583.229 72.23 583.083 72.67C582.936 73.11 581.983 73.66 580.223 74.32C578.023 74.32 576.079 74.1 574.393 73.66C570.726 72.8533 568.123 71.8633 566.583 70.69L564.493 69.37C564.346 69.0767 563.649 68.6733 562.403 68.16L560.973 66.4L559.323 64.64L558.223 62.66C558.003 62.3667 557.856 61.8167 557.783 61.01C557.709 60.13 557.599 59.3967 557.453 58.81C557.526 58.59 557.563 57.7833 557.563 56.39C557.709 55.73 557.783 54.9233 557.783 53.97C557.929 53.75 557.929 52.98 557.783 51.66L557.893 50.67V49.13C557.893 47.9567 558.039 46.71 558.333 45.39C558.626 44.07 558.919 42.6767 559.213 41.21C559.213 40.2567 559.323 39.4133 559.543 38.68C559.323 38.02 559.359 36.4067 559.653 33.84V33.18C559.653 32.4467 559.689 31.86 559.763 31.42V30.65L559.983 23.94C559.983 23.72 560.166 22.7667 560.533 21.08C560.533 20.2 560.863 18.77 561.523 16.79C561.963 16.0567 562.183 15.4333 562.183 14.92C562.183 14.5533 562.293 13.82 562.513 12.72C562.879 12.28 563.136 11.29 563.283 9.74999C563.356 9.74999 563.539 8.94333 563.833 7.33C563.833 6.45 564.236 5.46 565.043 4.36C565.189 3.92 565.849 3.40666 567.023 2.82H567.133C567.426 2.67333 568.526 2.49 570.433 2.27C571.313 2.27 572.449 2.56333 573.843 3.14999C574.209 3.14999 575.236 3.7 576.923 4.8C577.803 5.82667 577.546 8.17333 576.153 11.84C576.153 12.5 575.859 13.49 575.273 14.81C575.273 15.47 575.163 16.24 574.943 17.12C574.943 17.78 574.466 20.42 573.513 25.04C572.633 29.5867 571.789 38.02 570.983 50.34ZM610.726 48.03L611.056 57.93C612.23 62.11 613.953 65.0433 616.226 66.73C616.593 67.0967 617.436 67.5 618.756 67.94L621.506 68.6C621.873 68.6 622.276 68.4533 622.716 68.16C623.23 68.0133 623.596 67.83 623.816 67.61C624.33 66.95 624.843 66.3633 625.356 65.85C625.87 65.3367 626.09 65.08 626.016 65.08C626.31 64.7867 626.42 64.31 626.346 63.65C626.566 63.43 626.86 62.9533 627.226 62.22C628.033 58.1133 628.84 55.4733 629.646 54.3C629.94 51.0733 630.086 49.02 630.086 48.14C630.086 45.06 629.28 41.2833 627.666 36.81C626.786 35.7833 626.346 32.52 626.346 27.02C625.906 25.92 625.65 24.93 625.576 24.05C625.503 23.0967 625.246 22.1067 624.806 21.08C624.44 19.98 624.146 19.2467 623.926 18.88C623.706 18.5133 623.56 18.1833 623.486 17.89C623.486 17.5233 623.34 17.0833 623.046 16.57C621.873 14.81 620.076 15.7633 617.656 19.43L615.786 22.73C615.786 22.8767 615.42 24.2333 614.686 26.8C613.513 30.9067 612.926 33.2167 612.926 33.73C613 34.17 612.596 35.6733 611.716 38.24C611.643 38.46 611.606 38.9733 611.606 39.78C611.68 40.5867 611.533 41.7233 611.166 43.19C610.873 44.5833 610.726 46.1967 610.726 48.03ZM598.186 40L598.956 31.86C598.956 31.42 599.103 30.76 599.396 29.88C599.763 29 599.983 28.45 600.056 28.23C600.056 28.0833 600.13 27.8267 600.276 27.46C600.276 25.48 600.826 23.7567 601.926 22.29C603.613 18.4033 604.896 15.5067 605.776 13.6C606.656 11.6933 607.61 10.1167 608.636 8.87C608.71 8.50333 609.48 7.91667 610.946 7.11C613.953 5.49666 616.776 4.68999 619.416 4.68999C622.056 4.68999 624.586 5.09333 627.006 5.9C627.813 6.04666 628.876 6.59666 630.196 7.55C631.59 8.50333 632.396 9.01666 632.616 9.09C633.863 9.82333 635.146 11.4 636.466 13.82C637.86 16.1667 638.593 17.89 638.666 18.99C638.813 20.09 639.253 21.85 639.986 24.27C640.793 26.6167 641.196 28.3767 641.196 29.55C641.196 30.65 641.38 32.3367 641.746 34.61C642.186 36.8833 642.37 38.7167 642.296 40.11C641.856 50.45 640.536 57.93 638.336 62.55C637.896 65.7767 637.053 67.83 635.806 68.71L635.586 70.25C635.513 71.13 635.073 72.12 634.266 73.22C633.533 74.32 632.58 75.1633 631.406 75.75C631.186 75.97 629.72 76.3 627.006 76.74C623.12 77.4733 620.553 77.84 619.306 77.84C617.693 78.3533 615.64 78.2433 613.146 77.51C610.726 76.85 609.333 76.4833 608.966 76.41C608.6 76.41 607.793 76.0067 606.546 75.2C605.373 74.4667 604.603 73.88 604.236 73.44C603.063 72.56 602.366 71.8633 602.146 71.35L600.606 68.27C599.653 67.3167 598.993 65.96 598.626 64.2C598.26 62.3667 597.893 61.1933 597.526 60.68C597.16 59.8733 596.83 59.03 596.536 58.15C596.61 57.6367 596.646 56.72 596.646 55.4V54.3C596.353 53.2 596.426 52.1367 596.866 51.11C596.94 50.5967 596.976 49.9733 596.976 49.24C597.05 48.4333 597.16 47.2967 597.306 45.83V44.4C597.966 42.2 598.26 40.7333 598.186 40Z" fill="#2F518A"/>
</svg>
