<svg width="616" height="81" viewBox="0 0 616 81" fill="none" xmlns="http://www.w3.org/2000/svg">
<path d="M26.0427 45.84C29.3427 45.4 31.066 45.1433 31.2127 45.07C31.4327 44.9233 31.6527 44.8133 31.8727 44.74C32.5327 44.5933 33.4127 44.19 34.5127 43.53C34.8794 43.4567 35.356 43.2733 35.9427 42.98C36.5294 42.6867 37.2627 42.43 38.1427 42.21C39.096 41.99 39.756 41.77 40.1227 41.55C40.4894 41.33 41.2227 41.0367 42.3227 40.67C42.4694 40.5233 42.836 39.57 43.4227 37.81C44.0094 35.9767 44.376 34.9133 44.5227 34.62L43.5327 33.96C42.506 33.96 40.3794 34.2533 37.1527 34.84C36.7127 35.06 34.1827 35.5367 29.5627 36.27C28.0227 39.79 27.2527 41.8433 27.2527 42.43C27.2527 43.0167 26.8494 44.1533 26.0427 45.84ZM1.0727 52.22C1.0727 51.6333 1.5127 51.1933 2.39269 50.9C2.39269 50.7533 2.90603 50.5333 3.9327 50.24C7.30603 49.5067 9.02936 49.03 9.1027 48.81C9.39603 48.6633 11.5594 48.04 15.5927 46.94C16.1794 46.72 16.5827 46.4267 16.8027 46.06C17.096 45.6933 17.7194 44.4467 18.6727 42.32C19.186 41.7333 19.4427 41.1833 19.4427 40.67C19.516 40.1567 19.3694 39.9 19.0027 39.9C18.7094 39.9 17.1694 40.2667 14.3827 41C11.596 41.66 8.9927 41.99 6.5727 41.99C4.1527 41.99 2.79603 41.2567 2.5027 39.79C2.13603 39.4967 1.95269 38.8733 1.95269 37.92C1.95269 36.8933 2.13603 36.1967 2.5027 35.83C2.86936 35.4633 3.9327 35.17 5.6927 34.95L13.1727 33.08C16.9127 31.6867 19.186 30.8067 19.9927 30.44C20.7994 30 21.276 29.7433 21.4227 29.67C21.6427 29.5967 21.9727 29.45 22.4127 29.23C22.926 29.01 23.4394 28.79 23.9527 28.57C24.026 28.2033 24.576 26.48 25.6027 23.4C26.6294 20.32 27.2894 18.2667 27.5827 17.24C27.876 16.6533 28.316 16.14 28.9027 15.7C30.5894 11.0067 31.4694 8.62333 31.5427 8.55C31.6894 8.40333 32.0194 7.70667 32.5327 6.46C33.266 4.26 34.2927 2.90333 35.6127 2.39C36.7127 2.39 37.556 2.64666 38.1427 3.15999C38.656 3.45333 39.3527 4.07666 40.2327 5.03C41.1127 5.98333 41.516 6.75333 41.4427 7.34C41.4427 7.85333 40.8194 8.95333 39.5727 10.64C39.3527 11.3 39.0227 12.3267 38.5827 13.72C38.1427 15.04 37.8127 15.92 37.5927 16.36C37.2994 17.0933 36.786 18.78 36.0527 21.42C34.4394 23.7667 33.6327 25.4533 33.6327 26.48C33.926 26.6267 34.5127 26.6267 35.3927 26.48C36.346 26.3333 36.896 26.15 37.0427 25.93C37.4094 25.93 37.9594 25.6733 38.6927 25.16C38.986 25.16 39.316 25.05 39.6827 24.83C40.1227 24.5367 40.3794 24.3167 40.4527 24.17C41.6994 23.95 42.3594 23.8033 42.4327 23.73C45.806 23.29 47.786 22.3 48.3727 20.76C48.3727 19.5867 48.666 18.4133 49.2527 17.24C49.8394 16.0667 50.096 15.37 50.0227 15.15C50.0227 14.93 50.2427 14.0133 50.6827 12.4C51.416 10.42 51.856 9.02666 52.0027 8.21999C52.2227 7.41333 52.516 6.9 52.8827 6.67999C53.3227 5.94666 53.5427 5.36 53.5427 4.92C53.836 4.18667 54.3127 3.6 54.9727 3.15999C56.7327 2.28 58.236 2.28 59.4827 3.15999C60.0694 3.45333 60.766 3.96666 61.5727 4.69999C61.9394 4.69999 62.7094 5.17666 63.8827 6.13L65.0927 8.66C64.946 8.80666 64.7627 9.13666 64.5427 9.65C64.396 10.1633 64.2494 10.5667 64.1027 10.86C63.956 11.08 63.5527 11.9967 62.8927 13.61C61.426 17.4967 60.8394 19.4767 61.1327 19.55L66.7427 18.56L68.3927 19.22C71.3994 20.4667 73.1227 22.8133 73.5627 26.26C73.9294 27.2867 73.746 27.9833 73.0127 28.35C72.5727 27.8367 70.8127 27.91 67.7327 28.57L56.2927 30.44C54.6794 36.6 53.9094 39.7167 53.9827 39.79C57.136 39.79 59.776 39.7167 61.9027 39.57C63.4427 39.2767 65.166 39.7533 67.0727 41C68.026 41.9533 68.6127 43.31 68.8327 45.07C69.0527 46.83 68.906 48.2233 68.3927 49.25C66.706 49.25 64.286 49.6167 61.1327 50.35C55.706 50.9367 52.626 51.23 51.8927 51.23C51.1594 51.23 50.756 51.3033 50.6827 51.45C50.6827 51.5233 49.5827 55.2267 47.3827 62.56C46.0627 68.6467 45.3294 72.2767 45.1827 73.45C45.036 74.55 44.8527 75.3567 44.6327 75.87C44.4127 76.3833 43.8994 76.64 43.0927 76.64C42.3594 76.64 41.4794 76.53 40.4527 76.31C39.4994 76.1633 38.6927 75.98 38.0327 75.76C37.3727 75.54 37.0427 75.3567 37.0427 75.21C37.0427 75.0633 36.5294 74.8067 35.5027 74.44C35.5027 74.3667 35.2094 73.45 34.6227 71.69C34.5494 71.3967 34.586 70.5533 34.7327 69.16C34.586 66.8867 34.8794 64.8333 35.6127 63C36.1994 62.8533 36.4927 62.12 36.4927 60.8C36.786 59.1133 37.0794 57.9767 37.3727 57.39C37.666 56.73 37.776 56.0333 37.7027 55.3C37.6294 54.5667 37.3727 54.2 36.9327 54.2C36.4927 54.2 35.466 54.42 33.8527 54.86C32.3127 55.3 30.9194 55.6667 29.6727 55.96C26.8127 56.62 25.1994 56.95 24.8327 56.95C23.8794 57.0967 23.256 57.3167 22.9627 57.61C22.7427 57.83 22.5227 58.49 22.3027 59.59C22.0827 60.69 21.716 62.0467 21.2027 63.66C21.2027 63.9533 20.9827 64.9067 20.5427 66.52C20.1027 69.0867 19.4427 71.2867 18.5627 73.12L18.3427 74.66C18.3427 74.8067 18.2327 75.0633 18.0127 75.43C17.866 75.7967 17.6827 76.1633 17.4627 76.53C17.2427 76.97 16.8394 77.19 16.2527 77.19C15.7394 77.19 15.116 77.0433 14.3827 76.75C13.7227 76.53 13.136 76.4933 12.6227 76.64C12.5494 76.5667 12.4027 76.4933 12.1827 76.42C11.5227 76.0533 10.8994 75.5767 10.3127 74.99C10.0927 74.99 9.68936 74.6233 9.1027 73.89C8.07603 72.79 8.03936 70.9933 8.9927 68.5C9.6527 66.4467 9.94603 65.2367 9.8727 64.87C10.0194 64.5033 10.496 62.8533 11.3027 59.92C11.4494 59.7733 10.4227 59.8833 8.2227 60.25C6.0227 60.6167 4.88603 60.8 4.8127 60.8C3.78603 60.8 2.75936 59.8833 1.7327 58.05C1.0727 56.73 0.742695 55.85 0.742695 55.41C0.669362 54.97 0.816028 54.4567 1.18269 53.87L1.0727 52.22ZM99.7135 28.46L101.473 24.72C101.84 23.6933 101.987 22.8867 101.913 22.3C101.913 21.7133 101.913 21.2367 101.913 20.87C101.913 20.5033 101.877 20.0633 101.803 19.55C101.73 18.9633 101.473 18.4133 101.033 17.9C100.667 17.3133 100.263 16.9467 99.8235 16.8C99.4568 16.58 98.7235 16.25 97.6235 15.81L95.2035 15.7C93.0035 15.26 91.1335 15.4433 89.5935 16.25C89.5935 17.8633 89.1901 21.2367 88.3835 26.37L87.7235 33.96L87.1735 37.92C87.6868 37.92 89.0068 37.5167 91.1335 36.71L92.6735 35.39C92.9668 35.3167 93.8835 34.51 95.4235 32.97C95.7901 32.8233 96.1935 32.4567 96.6335 31.87L97.7335 30.55C97.9535 30.6233 98.3568 30.2567 98.9435 29.45L99.7135 28.46ZM86.9535 57.83L87.1735 60.47C87.4668 61.13 87.4668 62.0833 87.1735 63.33C86.8801 64.5767 86.8435 65.53 87.0635 66.19C87.0635 67.4367 87.1001 68.17 87.1735 68.39C87.8335 68.39 88.8235 68.0967 90.1435 67.51C91.5368 66.9233 92.4168 66.5933 92.7835 66.52C93.1501 66.4467 93.6268 66.1533 94.2135 65.64C96.0468 64.6867 97.9535 63.5867 99.9335 62.34L102.463 60.03C104.59 57.4633 106.057 55.5933 106.863 54.42L107.523 52.44C108.477 50.3867 107.56 48.4433 104.773 46.61C104.187 45.73 102.977 45.1433 101.143 44.85H101.033C98.4668 44.1167 96.9635 43.8233 96.5235 43.97L91.6835 45.07C90.8035 45.51 89.9968 45.73 89.2635 45.73C88.6035 45.73 87.8701 45.4 87.0635 44.74L87.1735 47.82C86.6601 49.2133 86.5135 50.57 86.7335 51.89C87.0268 53.21 87.1001 55.19 86.9535 57.83ZM91.7935 77.41H90.8035C90.0701 77.5567 88.6401 77.4467 86.5135 77.08C82.7735 76.4933 79.7668 75.32 77.4935 73.56C76.8335 72.9733 76.0635 72.2033 75.1835 71.25C74.3768 70.2233 73.9735 69.5267 73.9735 69.16C73.9735 68.7933 73.9735 68.3167 73.9735 67.73C74.0468 67.1433 74.0101 66.5567 73.8635 65.97V65.09C73.6435 64.65 73.6801 63.88 73.9735 62.78C74.2668 61.6067 74.3401 60.6533 74.1935 59.92C74.0468 58.9667 73.9368 57.94 73.8635 56.84C73.6435 56.5467 73.7535 55.74 74.1935 54.42C74.7801 44.52 75.0735 39.0933 75.0735 38.14L75.6235 34.84C75.2568 32.64 75.3301 30.7333 75.8435 29.12V26.7C75.7701 25.6733 76.0635 22.7033 76.7235 17.79C76.4301 16.91 75.4401 15.7733 73.7535 14.38C73.3868 14.0133 73.0201 13.4633 72.6535 12.73C72.2868 11.9233 72.4335 10.6767 73.0935 8.99C73.5335 8.40333 74.8168 7.45 76.9435 6.13C77.0901 5.69 79.0701 4.84666 82.8835 3.6L84.9735 2.72C86.0001 2.35333 88.0535 2.20666 91.1335 2.28C92.8201 2.5 94.1768 2.83 95.2035 3.27C98.9435 5.10333 102.39 7.19333 105.543 9.54C106.497 9.98 107.157 10.5667 107.523 11.3C108.843 12.18 110.053 13.61 111.153 15.59C112.327 17.4967 112.987 18.7067 113.133 19.22C113.5 21.5667 113.133 24.39 112.033 27.69C111.52 29.3767 109.1 32.8967 104.773 38.25C105.507 38.47 106.753 39.0933 108.513 40.12C108.733 40.4133 109.503 40.9267 110.823 41.66C110.97 41.88 111.153 42.1367 111.373 42.43C111.667 42.7233 111.887 42.98 112.033 43.2L112.913 43.75L114.013 45.4L115.663 46.83C116.397 47.5633 116.983 48.37 117.423 49.25C118.523 50.2767 119.11 51.12 119.183 51.78L119.403 53.87C119.33 54.6767 118.23 57.3167 116.103 61.79C115.297 63.4033 114.27 64.65 113.023 65.53L111.373 67.51C110.933 68.0967 110.09 68.83 108.843 69.71C107.67 70.59 106.68 71.4333 105.873 72.24C105.507 72.3867 104.92 72.7167 104.113 73.23C103.38 73.7433 102.243 74.3667 100.703 75.1C99.2368 75.8333 98.2468 76.2733 97.7335 76.42C96.2668 76.86 94.2868 77.19 91.7935 77.41ZM141.78 44.3C141.927 44.1533 142.77 44.0067 144.31 43.86C145.923 43.64 147.793 42.98 149.92 41.88C149.993 41.88 149.957 41 149.81 39.24C149.59 36.16 149.407 33.96 149.26 32.64C149.113 30.88 148.967 29.6333 148.82 28.9C148.82 27.5067 148.27 24.61 147.17 20.21L142.33 36.6C141.303 41.1467 140.9 43.9333 141.12 44.96L141.78 44.3ZM126.93 47.49L127.59 42.65C127.59 41.6967 127.737 40.7433 128.03 39.79C128.03 38.5433 128.653 36.6733 129.9 34.18C129.9 34.0333 130.23 33.08 130.89 31.32C130.89 31.1733 131.587 29.01 132.98 24.83L134.3 21.64C134.3 21.3467 134.483 20.7967 134.85 19.99C135.217 19.11 135.473 18.2667 135.62 17.46C135.84 16.58 136.097 15.7367 136.39 14.93C137.417 12.95 138.333 11.2633 139.14 9.87C140.68 6.93666 143.54 5.61666 147.72 5.91L151.24 6.23999C153.44 6.82666 155.127 7.45 156.3 8.11C157.987 8.77 159.123 9.50333 159.71 10.31C160.297 11.0433 160.553 12.29 160.48 14.05C160.553 14.93 160.773 18.7433 161.14 25.49C161.507 32.2367 161.69 35.6467 161.69 35.72L162.24 40.45C162.24 40.89 163.047 46.17 164.66 56.29L167.08 63.99C168.547 68.0967 169.317 70.26 169.39 70.48C169.537 70.6267 169.867 71.3967 170.38 72.79C171.187 75.21 170.49 76.8233 168.29 77.63C166.31 77.9233 164.843 77.74 163.89 77.08C163.523 77.08 162.68 76.75 161.36 76.09C161.213 75.7233 160.773 75.3567 160.04 74.99C159.38 74.6967 158.94 74.44 158.72 74.22C157.913 74 157.18 72.8633 156.52 70.81C156.3 70.6633 155.897 70.0767 155.31 69.05C154.797 68.0233 154.65 67.18 154.87 66.52C154.357 65.86 154.1 64.5033 154.1 62.45C153.44 61.35 153.11 59.6267 153.11 57.28C153.11 54.9333 152.743 53.1 152.01 51.78C148.27 53.4667 144.273 54.3833 140.02 54.53C139.213 54.53 138.81 54.6767 138.81 54.97C138.81 55.63 138.59 56.8033 138.15 58.49L136.28 70.59C137.013 76.0167 136.353 78.8767 134.3 79.17C133.713 79.17 132.723 79.3167 131.33 79.61C130.01 79.9033 128.91 79.6467 128.03 78.84C126.343 77.8867 125.133 76.8967 124.4 75.87C123.74 74.9167 123.447 73.8167 123.52 72.57C123.593 71.5433 123.777 69.3433 124.07 65.97C124.217 65.8233 124.253 65.0167 124.18 63.55C124.18 62.01 124.29 60.8367 124.51 60.03L126.27 53.21C126.49 53.0633 126.783 51.9633 127.15 49.91C127.077 49.7633 127.04 49.3967 127.04 48.81L126.93 47.49ZM192.358 37.04C192.431 35.28 192.431 34.2167 192.358 33.85C192.358 33.4833 192.358 33.2267 192.358 33.08L192.688 30.11C192.688 29.01 192.614 28.1667 192.468 27.58C192.541 27.2867 192.578 26.7 192.578 25.82C192.724 25.5267 192.798 25.1233 192.798 24.61C192.798 24.0233 192.981 21.8967 193.348 18.23C191.734 18.5967 190.671 18.8533 190.158 19L185.758 19.22C183.778 19.8067 182.348 20.1 181.468 20.1C179.414 20.6867 178.204 20.9433 177.838 20.87C176.004 21.0167 174.794 20.87 174.208 20.43C173.401 19.4767 172.998 18.12 172.998 16.36C172.704 14.82 172.668 13.7933 172.888 13.28C173.694 12.18 174.208 11.5567 174.428 11.41C174.721 11.19 175.381 10.97 176.408 10.75C177.434 10.53 178.424 10.0167 179.378 9.20999L185.318 6.79C185.318 6.79 186.161 6.64333 187.848 6.35C189.608 5.98333 190.928 5.58 191.808 5.13999C192.174 5.13999 192.981 5.03 194.228 4.81C195.474 4.59 196.244 4.51666 196.538 4.59C196.831 4.59 197.344 4.37 198.078 3.93L205.118 3.27C205.191 3.34333 205.594 3.41666 206.328 3.49C207.428 3.63666 208.784 3.45333 210.398 2.94C211.571 3.08666 212.561 3.12333 213.368 3.05C213.734 3.19666 214.834 2.97667 216.668 2.39C217.108 2.39 217.511 2.35333 217.878 2.28C218.244 2.13333 219.088 1.91333 220.408 1.61999C221.214 1.61999 221.874 1.80333 222.388 2.16999C222.754 2.09666 223.158 2.31666 223.598 2.83C224.111 3.34333 224.624 4.04 225.138 4.92C226.311 6.68 227.008 7.70666 227.228 8C228.181 9.54 228.804 11.1167 229.098 12.73C229.391 13.3167 229.464 13.72 229.318 13.94C229.171 14.16 228.658 14.3433 227.778 14.49C227.411 14.1967 226.971 14.0867 226.458 14.16C225.944 14.16 224.368 14.3433 221.728 14.71L219.858 14.6C218.098 15.04 215.861 15.26 213.148 15.26L206.328 15.48L205.668 15.81C205.228 21.2367 205.081 24.7567 205.228 26.37C205.594 29.1567 205.704 30.6233 205.558 30.77V32.97C206.291 46.17 206.694 53.0267 206.768 53.54C206.914 54.0533 206.988 55.08 206.988 56.62L207.758 65.53C208.198 66.0433 208.454 66.8867 208.528 68.06C208.601 69.6 208.198 70.5167 207.318 70.81C205.778 71.3233 204.531 71.8 203.578 72.24C202.624 72.6067 201.121 72.6433 199.068 72.35C199.068 72.13 198.224 71.7633 196.538 71.25C196.538 71.1767 196.061 70.6267 195.108 69.6C194.814 69.2333 194.668 68.72 194.668 68.06C194.228 66.3 194.008 63.9533 194.008 61.02C193.568 58.9667 193.494 57.4267 193.788 56.4C193.714 56.3267 193.458 55.08 193.018 52.66V48.59C193.018 48.0033 192.834 47.4167 192.468 46.83L192.358 43.42V37.04ZM244.009 31.43C243.789 31.65 243.643 32.2733 243.569 33.3L243.019 40.01C242.946 40.0833 242.909 43.2733 242.909 49.58C243.203 50.5333 243.606 52.3667 244.119 55.08L245.549 57.61C245.843 57.7567 246.283 58.4167 246.869 59.59C247.383 59.9567 247.676 60.2133 247.749 60.36C247.823 60.5067 247.933 60.69 248.079 60.91C248.226 61.13 248.299 61.2767 248.299 61.35L248.959 61.46C249.033 61.46 249.363 61.6067 249.949 61.9C252.076 63.22 254.166 62.78 256.219 60.58C257.099 59.5533 257.943 58.6367 258.749 57.83C259.336 56.95 260.069 56.29 260.949 55.85C263.516 54.0167 265.606 54.1633 267.219 56.29C267.586 56.8767 267.586 58.27 267.219 60.47C266.926 62.5967 265.826 64.9067 263.919 67.4C262.819 69.2333 261.426 70.6633 259.739 71.69C259.593 72.13 256.806 72.4233 251.379 72.57L249.619 72.24C249.033 72.3867 247.199 71.9833 244.119 71.03L242.689 70.7C242.103 70.7 241.516 70.48 240.929 70.04C240.416 69.6 239.499 68.94 238.179 68.06C236.859 67.1067 235.833 66.3367 235.099 65.75C232.973 64.0633 231.469 61.9733 230.589 59.48C230.296 58.9667 230.113 58.27 230.039 57.39C230.039 56.4367 229.929 55.74 229.709 55.3C229.123 54.7133 228.866 53.7967 228.939 52.55C229.086 51.23 229.086 49.8367 228.939 48.37V47.49C228.939 46.6833 228.976 46.17 229.049 45.95C228.756 45.6567 228.646 45.0333 228.719 44.08C229.086 39.3133 229.269 36.6367 229.269 36.05C229.416 35.7567 229.453 35.2067 229.379 34.4C229.379 33.5933 229.489 32.64 229.709 31.54C229.343 30.8067 229.343 29.8533 229.709 28.68L229.929 25.38C230.003 24.28 230.186 23.29 230.479 22.41C230.846 21.4567 231.176 20.3567 231.469 19.11C231.836 17.79 232.899 15.8833 234.659 13.39C234.659 12.8033 235.209 12.1067 236.309 11.3C236.309 11.0067 236.603 10.5667 237.189 9.98C237.849 9.39333 238.839 8.44 240.159 7.12C240.526 6.53333 241.369 5.94666 242.689 5.36C244.009 4.7 245.256 4.00333 246.429 3.27C247.016 3.05 248.079 2.94 249.619 2.94C250.499 2.57333 252.406 2.68333 255.339 3.27C256.733 3.27 259.079 3.89333 262.379 5.13999C262.453 5.21333 262.636 5.36 262.929 5.58C263.223 5.72666 263.589 5.94666 264.029 6.23999C265.349 7.12 266.083 7.56 266.229 7.56C269.089 9.98 270.703 13.1333 271.069 17.02C271.436 18.9267 271.436 20.3933 271.069 21.42C271.069 22.52 270.519 24.28 269.419 26.7L267.989 28.57H267.219C262.306 29.3033 258.969 28.46 257.209 26.04C256.989 25.6 256.879 25.1967 256.879 24.83C256.953 24.4633 257.063 24.1333 257.209 23.84C257.649 22.6667 257.869 22.08 257.869 22.08C258.896 19.9533 258.896 17.9733 257.869 16.14C257.869 15.92 257.503 15.5533 256.769 15.04C256.109 14.4533 255.743 14.0867 255.669 13.94C254.863 13.3533 253.983 13.17 253.029 13.39C251.123 14.1233 249.546 16.2867 248.299 19.88C247.053 21.2 245.916 23.6567 244.889 27.25C244.889 27.7633 244.743 28.46 244.449 29.34C244.156 30.1467 244.009 30.8433 244.009 31.43ZM280.679 55.19C280.826 54.97 280.826 54.4567 280.679 53.65C280.386 51.01 280.349 49.1767 280.569 48.15C280.276 44.19 280.166 41.88 280.239 41.22C280.386 40.56 280.606 40.1933 280.899 40.12C280.606 39.68 280.312 38.0667 280.019 35.28C279.799 32.4933 279.762 30.6233 279.909 29.67C279.762 29.0833 279.726 28.3867 279.799 27.58C279.872 26.7 279.982 26.1133 280.129 25.82C279.982 25.6733 279.872 25.1233 279.799 24.17V19.22L280.019 16.36V13.94L280.679 10.53C280.459 10.1633 280.642 9.50333 281.229 8.55C280.496 7.00999 281.266 5.10333 283.539 2.83C283.612 2.68333 284.456 2.20666 286.069 1.4C287.389 1.32666 288.269 1.32666 288.709 1.4C289.222 1.47333 289.956 1.54666 290.909 1.61999C291.936 1.69333 292.706 1.80333 293.219 1.95C294.539 2.39 295.199 3.56333 295.199 5.47V7.34C295.346 9.98 295.419 11.96 295.419 13.28V15.7C295.419 16.6533 295.346 17.2033 295.199 17.35C295.272 17.6433 295.272 18.34 295.199 19.44V21.31C294.979 23.5833 294.906 24.9033 294.979 25.27L294.209 31.1C294.796 31.32 296.886 31.43 300.479 31.43H305.979C309.206 31.43 311.222 31.43 312.029 31.43C312.909 31.3567 313.459 31.1 313.679 30.66C313.972 30.22 314.192 29.6333 314.339 28.9C314.486 28.1667 314.596 27.3233 314.669 26.37C314.742 25.4167 314.816 24.83 314.889 24.61C315.329 24.2433 315.439 22.6667 315.219 19.88C315.219 19.66 315.366 19.11 315.659 18.23C315.659 17.2033 315.806 16.03 316.099 14.71C316.099 13.3167 316.319 12.1067 316.759 11.08C317.272 9.98 317.639 9.06333 317.859 8.33C318.226 7.08333 319.106 6.02 320.499 5.13999C322.332 3.81999 324.092 2.97666 325.779 2.60999H327.759C329.739 2.97666 330.399 4.84666 329.739 8.21999C329.739 9.32 329.446 10.75 328.859 12.51C328.199 15.9567 327.869 18.1933 327.869 19.22C327.869 20.2467 327.576 22.1167 326.989 24.83C327.136 26.2233 327.136 27.14 326.989 27.58C326.916 28.02 326.879 28.57 326.879 29.23C326.732 30.8433 326.659 31.9433 326.659 32.53C326.512 34.73 326.439 36.49 326.439 37.81C326.439 39.13 326.329 40.56 326.109 42.1C326.109 43.64 325.852 45.2167 325.339 46.83L325.009 53.87C325.009 54.3833 325.266 58.16 325.779 65.2C326.219 65.64 326.366 66.52 326.219 67.84C326.072 69.0867 325.816 69.9667 325.449 70.48C325.082 70.9933 324.679 71.2867 324.239 71.36C323.872 71.4333 323.286 71.47 322.479 71.47C320.792 72.4233 319.436 72.79 318.409 72.57C317.529 72.57 316.612 72.2767 315.659 71.69C314.119 70.8833 313.129 69.8933 312.689 68.72C312.689 68.2067 312.579 67.5833 312.359 66.85C312.212 66.1167 312.212 65.3467 312.359 64.54C312.506 63.66 312.542 62.7433 312.469 61.79C312.469 60.8367 312.469 59.7367 312.469 58.49L312.579 57.17C312.432 56.8767 312.506 56.4 312.799 55.74C313.092 55.08 313.129 54.5667 312.909 54.2V51.23L313.459 45.62C312.726 45.1067 312.689 43.8967 313.349 41.99L313.569 41.11C312.689 41.33 311.882 41.44 311.149 41.44C309.096 41.9533 306.822 42.21 304.329 42.21L294.429 41.88V43.09C294.282 44.2633 294.246 46.0233 294.319 48.37V50.46C294.392 52.3667 294.429 55.08 294.429 58.6C294.722 62.4133 294.869 65.1633 294.869 66.85L294.759 67.62C294.759 68.2067 294.686 68.72 294.539 69.16C294.539 70.5533 294.172 71.5067 293.439 72.02C292.779 72.5333 291.679 72.8633 290.139 73.01C288.599 73.1567 287.206 72.7533 285.959 71.8C284.199 70.92 283.282 70.1867 283.209 69.6C283.136 69.0133 282.916 68.2433 282.549 67.29C282.182 66.7033 281.926 66.0067 281.779 65.2C281.779 62.8533 281.742 61.5333 281.669 61.24C281.449 60.9467 281.339 60.4333 281.339 59.7C281.339 58.7467 281.119 57.2433 280.679 55.19ZM381.73 26.37C381.217 28.8633 380.96 31.0267 380.96 32.86C380.814 33.8867 380.63 34.5833 380.41 34.95C380.264 35.3167 380.19 36.16 380.19 37.48C380.19 38.8 380.594 39.57 381.4 39.79C382.207 39.79 383.38 39.35 384.92 38.47L387.23 36.38C388.037 35.72 389.907 34.51 392.84 32.75L395.59 30.11L396.69 28.68L397.13 27.69C397.717 26.7367 397.9 25.7467 397.68 24.72L397.46 22.85C396.947 20.5767 396.58 19.2567 396.36 18.89C396.214 18.45 395.957 18.01 395.59 17.57C395.224 17.0567 394.82 16.6167 394.38 16.25C393.94 15.8833 393.684 15.6267 393.61 15.48L390.2 13.83C390.127 13.7567 389.687 13.6467 388.88 13.5C387.634 12.9867 385.874 12.9133 383.6 13.28L382.94 16.8C382.94 17.24 382.72 18.01 382.28 19.11C381.914 20.21 381.84 21.0167 382.06 21.53C381.987 21.75 381.95 22.19 381.95 22.85C381.95 23.4367 381.877 24.2433 381.73 25.27V26.37ZM379.64 47.71C379.054 48.0033 378.687 48.15 378.54 48.15C378.467 48.37 378.43 48.7733 378.43 49.36V50.68C378.43 51.1933 378.1 52.77 377.44 55.41V56.51C377.44 57.61 377.257 58.49 376.89 59.15L376.45 63.99L375.79 66.74C375.644 67.18 375.607 67.5833 375.68 67.95C375.827 68.3167 375.937 69.6733 376.01 72.02C376.157 74.2933 376.084 75.9433 375.79 76.97L375.13 77.96C373.664 78.4 372.71 78.51 372.27 78.29C371.83 78.07 371.097 77.9233 370.07 77.85C369.044 77.7767 368.457 77.7033 368.31 77.63C368.237 77.63 367.87 77.4833 367.21 77.19C366.624 76.97 366.22 76.7867 366 76.64C365.854 76.4933 365.597 76.2733 365.23 75.98C364.277 75.32 363.8 73.89 363.8 71.69C363.654 71.25 363.69 70.7367 363.91 70.15C363.47 69.93 363.324 69.3433 363.47 68.39C363.69 67.95 363.8 67.2533 363.8 66.3C363.8 65.3467 363.91 64.5767 364.13 63.99V62.23C364.13 61.57 364.387 60.2133 364.9 58.16C364.9 57.5733 365.01 57.06 365.23 56.62C365.084 56.4733 365.267 55.85 365.78 54.75C365.634 54.53 365.817 53.4667 366.33 51.56C366.11 51.34 366.074 50.68 366.22 49.58C366.367 48.4067 366.55 47.49 366.77 46.83C366.77 45.4367 366.88 44.5933 367.1 44.3C367.027 44.08 366.917 43.3833 366.77 42.21L366.99 40.89C366.99 40.01 367.32 38.6533 367.98 36.82C368.567 32.64 368.86 30.3667 368.86 30C369.887 25.7467 370.4 23.1067 370.4 22.08C370.62 22.0067 370.84 21.31 371.06 19.99C371.28 18.5967 371.207 17.6067 370.84 17.02C367.54 18.2667 364.79 19.7333 362.59 21.42C361.124 22.6667 360.134 23.1433 359.62 22.85C358.594 22.2633 358.08 21.42 358.08 20.32L357.64 18.56C357.567 18.4867 357.384 18.0833 357.09 17.35C356.724 16.5433 356.577 15.9567 356.65 15.59C356.65 15.2233 356.614 14.7467 356.54 14.16C356.394 13.5 356.394 13.06 356.54 12.84C357.2 11.5933 358.08 10.6767 359.18 10.09L361.82 8.21999L363.69 7.12C363.837 7.12 365.23 6.35 367.87 4.81C368.017 4.51667 368.567 4.26 369.52 4.04C370.474 3.81999 372.6 3.15999 375.9 2.06C378.1 1.84 379.384 1.73 379.75 1.73C382.097 1.43667 384.077 1.65666 385.69 2.39C386.79 2.68333 387.414 2.83 387.56 2.83C387.78 2.75667 388.037 2.75667 388.33 2.83C388.697 2.90333 388.954 2.94 389.1 2.94C389.1 3.08666 389.43 3.15999 390.09 3.15999L392.18 3.93C392.547 3.93 393.024 4.11333 393.61 4.48C394.05 4.40666 394.637 4.59 395.37 5.03C396.177 5.39666 397.314 5.94666 398.78 6.67999C400.32 7.41333 401.09 8.03666 401.09 8.55C401.53 8.69666 402.007 9.09999 402.52 9.75999L403.84 11.08L405.93 13.83C406.077 13.9033 406.407 14.27 406.92 14.93C407.654 16.1767 408.057 16.91 408.13 17.13C408.204 17.35 408.277 17.57 408.35 17.79C408.424 17.9367 408.717 18.56 409.23 19.66C410.257 21.7133 410.66 23.51 410.44 25.05C410.44 25.1233 410.074 26.26 409.34 28.46C408.02 32.3467 406.004 35.4267 403.29 37.7C402.704 38.14 401.934 38.7267 400.98 39.46C400.027 40.12 399.257 40.7067 398.67 41.22C395.884 42.9067 394.234 43.97 393.72 44.41C393.28 44.85 392.877 45.2167 392.51 45.51L391.3 46.06L391.52 46.72C391.52 46.4267 391.704 46.5733 392.07 47.16C392.51 47.6733 392.804 48.0767 392.95 48.37C392.95 48.7367 393.317 49.1767 394.05 49.69C394.197 49.6167 394.38 49.69 394.6 49.91C395.04 50.35 395.26 51.0467 395.26 52C395.774 52.2933 396.544 53.1733 397.57 54.64C398.597 55.3733 399.477 56.4 400.21 57.72C400.724 58.3067 401.127 58.71 401.42 58.93C401.714 59.37 402.3 59.9567 403.18 60.69C404.06 61.4233 404.647 61.9367 404.94 62.23C405.234 62.45 405.564 62.7067 405.93 63C407.25 64.0267 408.167 64.7967 408.68 65.31L410 66.19C412.714 68.83 414.144 70.26 414.29 70.48C414.217 70.9933 413.704 71.7633 412.75 72.79C412.677 73.9633 410.99 74.9533 407.69 75.76C406.59 75.76 405.087 75.2467 403.18 74.22C401.274 73.2667 399.807 72.24 398.78 71.14C395.554 68.7933 393.427 66.96 392.4 65.64C389.394 62.6333 387.23 59.7367 385.91 56.95C385.617 56.73 385.25 56.3633 384.81 55.85C384.444 55.3367 384.077 54.9333 383.71 54.64L382.28 51.89C380.96 50.0567 380.3 49.14 380.3 49.14L379.64 47.71ZM429.048 38.69C428.828 38.91 428.645 40.34 428.498 42.98C428.352 45.62 428.205 47.0867 428.058 47.38L428.168 53.54C428.535 55.74 428.902 57.3167 429.268 58.27C429.635 59.2233 429.855 59.81 429.928 60.03C430.002 60.25 430.075 60.5067 430.148 60.8C430.222 61.02 430.588 61.4967 431.248 62.23C431.908 62.9633 432.458 63.66 432.898 64.32C432.972 64.32 433.265 64.54 433.778 64.98C435.025 65.9333 436.052 66.2267 436.858 65.86C436.932 65.86 437.335 65.6767 438.068 65.31C438.068 65.09 438.508 64.87 439.388 64.65C439.462 64.65 439.682 64.3567 440.048 63.77C440.195 63.77 440.488 63.5133 440.928 63C440.928 62.78 441.148 62.4867 441.588 62.12C442.028 61.68 442.395 61.3133 442.688 61.02C442.615 60.8733 442.982 60.1767 443.788 58.93C444.082 58.93 444.888 57.5 446.208 54.64C447.748 51.4133 448.518 49.7267 448.518 49.58C448.518 49.36 448.702 48.6267 449.068 47.38C449.435 46.06 449.655 45.1433 449.728 44.63C449.875 44.0433 450.022 43.5667 450.168 43.2C450.315 42.8333 450.388 41.99 450.388 40.67C450.535 40.5967 450.792 38.9467 451.158 35.72V31.98L451.048 26.92C450.902 26.48 450.828 26.0033 450.828 25.49C450.828 24.9767 450.755 24.5733 450.608 24.28C450.535 23.9867 450.462 23.51 450.388 22.85C450.022 19.8433 449.398 17.9 448.518 17.02C448.518 16.7267 447.932 16.0667 446.758 15.04L445.658 14.82C444.485 14.6733 442.395 15.48 439.388 17.24C439.242 17.24 438.618 17.68 437.518 18.56C436.492 19.44 435.868 20.0267 435.648 20.32C435.428 20.3933 435.025 20.7233 434.438 21.31C432.385 23.2167 430.588 29.01 429.048 38.69ZM444.448 3.05C445.255 3.05 446.062 3.05 446.868 3.05L450.278 3.82C451.085 3.96666 451.818 4.40666 452.478 5.13999C457.025 8.66 459.445 11.2267 459.738 12.84C460.105 13.72 460.362 14.3433 460.508 14.71C460.655 15.0767 460.802 15.4433 460.948 15.81V15.92C460.948 16.0667 460.985 16.2867 461.058 16.58C461.498 17.9 461.902 20.0633 462.268 23.07C462.855 25.93 462.928 29.01 462.488 32.31C462.488 33.41 462.415 34.2533 462.268 34.84C462.342 35.6467 462.232 36.8567 461.938 38.47C462.158 39.0567 461.938 39.9733 461.278 41.22C461.278 42.1 460.948 43.6767 460.288 45.95C460.508 46.39 459.885 48.48 458.418 52.22C456.952 55.96 455.082 59.8467 452.808 63.88C451.782 65.9333 450.132 68.2433 447.858 70.81C447.418 71.47 446.355 72.4967 444.668 73.89C442.835 75.87 441.148 77.1167 439.608 77.63C439.388 77.7033 438.838 77.7033 437.958 77.63C437.078 77.63 436.528 77.52 436.308 77.3C435.355 77.3 434.732 77.2267 434.438 77.08C434.218 76.9333 434.072 76.86 433.998 76.86C433.632 76.7133 433.192 76.5667 432.678 76.42C432.238 76.3467 431.762 76.2 431.248 75.98C430.735 75.76 430.405 75.65 430.258 75.65C430.112 75.65 429.965 75.6133 429.818 75.54C429.745 75.4667 429.415 75.3567 428.828 75.21C428.315 75.0633 426.885 74.4033 424.538 73.23C424.465 73.23 424.135 72.9 423.548 72.24L421.788 71.03C421.275 71.03 420.835 70.48 420.468 69.38C420.028 68.94 419.698 68.4267 419.478 67.84C418.672 67.84 417.975 65.7133 417.388 61.46C417.022 59.6267 416.728 57.4633 416.508 54.97C416.362 54.6767 416.288 54.1633 416.288 53.43C416.068 52.11 415.958 50.8633 415.958 49.69C415.812 49.1033 415.738 48.3333 415.738 47.38C415.738 46.4267 415.702 45.9133 415.628 45.84C415.555 45.7667 415.482 44.8867 415.408 43.2C415.408 41.5133 415.445 40.6333 415.518 40.56C415.592 40.4133 415.665 39.7167 415.738 38.47L415.958 32.75V30.77L416.178 26.37C416.178 26.0033 416.288 25.27 416.508 24.17C416.655 24.0233 416.875 22.96 417.168 20.98C417.755 18.4867 418.158 17.02 418.378 16.58C418.672 16.0667 418.855 15.6633 418.928 15.37C419.075 15.0767 419.258 14.7833 419.478 14.49C419.698 14.1967 420.065 13.5367 420.578 12.51L422.558 9.54C422.558 9.39333 422.778 9.1 423.218 8.66C423.732 8.22 424.135 7.96333 424.428 7.89C424.575 7.45 424.868 7.19333 425.308 7.12C425.822 6.97333 426.592 6.57 427.618 5.91C428.425 5.61666 428.828 5.39666 428.828 5.25C430.148 4.37 431.688 3.93 433.448 3.93L435.098 4.04L438.288 5.25C440.928 4.22333 442.505 3.70999 443.018 3.70999C443.165 3.49 443.642 3.27 444.448 3.05ZM484.959 26.92L485.839 32.31L485.729 33.41V34.84C486.243 36.6733 486.719 39.2767 487.159 42.65L488.699 54.09C488.626 54.3833 488.663 54.9333 488.809 55.74C489.029 56.4733 489.066 56.9133 488.919 57.06C488.993 59.1133 489.213 60.1033 489.579 60.03C490.239 59.9567 491.009 58.4533 491.889 55.52C492.036 55.2267 492.403 54.53 492.989 53.43C493.649 51.3033 494.016 49.9467 494.089 49.36C494.089 49.14 494.713 47.27 495.959 43.75C495.886 43.6767 496.106 43.1267 496.619 42.1C497.206 40.7067 497.609 39.3867 497.829 38.14C498.049 36.8933 498.196 36.1233 498.269 35.83C498.343 35.4633 498.489 35.06 498.709 34.62C499.443 32.5667 499.846 30.9167 499.919 29.67C499.993 28.35 500.213 27.14 500.579 26.04C500.579 24.72 501.166 22.3 502.339 18.78C502.193 18.4133 502.449 17.57 503.109 16.25C503.623 14.49 504.209 12.95 504.869 11.63C506.116 8.62333 508.316 6.60666 511.469 5.58L513.009 5.13999H515.979C517.519 5.28666 518.473 5.61666 518.839 6.13C519.279 6.64333 519.499 7.34 519.499 8.21999C519.353 8.66 519.243 9.35666 519.169 10.31L516.859 17.02L513.779 24.39L512.349 26.92C511.176 30.22 510.553 32.0533 510.479 32.42C507.473 41.1467 505.933 45.5833 505.859 45.73C504.906 47.5633 504.429 48.8833 504.429 49.69C504.429 50.4233 504.209 51.3033 503.769 52.33C503.403 53.3567 503.183 53.9067 503.109 53.98C502.743 54.3467 502.376 55.74 502.009 58.16C501.716 58.3067 501.569 58.9667 501.569 60.14C501.056 61.24 500.726 62.5967 500.579 64.21C500.213 64.5767 499.956 65.4933 499.809 66.96C498.929 69.7467 497.866 71.91 496.619 73.45C495.446 74.99 493.723 75.9067 491.449 76.2C489.176 76.5667 487.673 76.4933 486.939 75.98C486.646 76.0533 486.169 75.98 485.509 75.76C484.849 75.76 483.786 75.32 482.319 74.44C481.439 74.1467 480.083 72.79 478.249 70.37C478.249 70.0033 477.846 69.2333 477.039 68.06C476.966 66.2267 476.709 65.09 476.269 64.65C476.123 64.2833 476.049 64.0267 476.049 63.88L475.609 61.24C475.609 61.3133 475.646 61.46 475.719 61.68C475.646 59.48 475.683 57.72 475.829 56.4C475.463 55.5933 475.499 54.4933 475.939 53.1V51.12C475.939 50.9733 475.719 50.24 475.279 48.92C474.839 47.6 474.619 46.17 474.619 44.63L474.399 41.77C474.399 38.03 474.289 35.6467 474.069 34.62C473.116 29.9267 472.603 26.6267 472.529 24.72C472.456 22.74 472.456 21.6767 472.529 21.53L472.309 19.11C471.796 17.9367 471.539 16.9833 471.539 16.25C470.219 12.29 469.743 9.61333 470.109 8.21999C470.549 6.75333 471.649 5.87333 473.409 5.58C473.849 5.43333 474.876 5.39666 476.489 5.47C478.176 5.54333 479.313 5.65333 479.899 5.8C480.486 5.94666 481.183 6.60666 481.989 7.77999C483.016 9.54 483.676 12.9133 483.969 17.9L484.079 19C484.079 20.3933 484.226 21.53 484.519 22.41V23.29C484.813 24.4633 484.959 25.6733 484.959 26.92ZM535.079 44.85L534.859 52.77C535.006 55.2633 535.189 56.62 535.409 56.84L535.849 59.48C535.849 59.9933 536.106 60.9467 536.619 62.34C536.619 62.6333 537.609 63.55 539.589 65.09C540.542 65.09 542.742 64.43 546.189 63.11L550.589 61.57C552.349 60.47 553.999 60.0667 555.539 60.36C557.152 60.58 558.069 61.8633 558.289 64.21C558.362 65.31 558.252 66.1533 557.959 66.74C557.739 67.3267 557.116 68.0233 556.089 68.83C555.136 69.6367 554.476 70.2233 554.109 70.59C553.742 70.9567 553.156 71.3233 552.349 71.69C551.616 72.0567 550.699 72.46 549.599 72.9C548.572 73.34 547.912 73.6333 547.619 73.78C544.539 75.0267 542.302 75.4667 540.909 75.1C540.102 75.1 539.186 74.88 538.159 74.44C537.132 74.0733 536.582 73.9267 536.509 74C536.216 74.0733 535.629 73.9633 534.749 73.67C533.942 73.3767 532.622 73.01 530.789 72.57C530.789 72.2767 530.276 71.9467 529.249 71.58L526.389 69.05C525.876 68.7567 525.362 67.84 524.849 66.3C523.382 63.9533 522.539 61.8633 522.319 60.03C521.952 59.15 521.806 58.0133 521.879 56.62C521.586 56.2533 521.256 54.75 520.889 52.11C520.669 48.59 520.779 45.8767 521.219 43.97C521.219 42.7233 521.512 41.3667 522.099 39.9C522.392 38.6533 522.612 37.4433 522.759 36.27C522.979 35.83 523.162 34.9867 523.309 33.74C523.016 32.7867 523.602 30.3667 525.069 26.48C525.069 26.04 525.362 25.05 525.949 23.51C526.389 22.7033 526.682 21.64 526.829 20.32L527.709 18.34C527.709 18.2667 528.332 16.1033 529.579 11.85C530.239 10.53 530.569 9.72333 530.569 9.43L533.539 3.70999L534.859 2.06C535.592 1.47333 536.399 1.06999 537.279 0.849998C537.719 0.483331 538.892 0.556664 540.799 1.06999C541.972 1.51 542.742 1.95 543.109 2.39C543.622 2.68333 544.246 2.83 544.979 2.83C545.712 2.75667 546.886 2.72 548.499 2.72C550.992 2.28 553.779 2.39 556.859 3.05C557.886 3.27 558.802 3.93 559.609 5.03C560.489 5.98333 560.819 6.86333 560.599 7.67C560.379 8.47666 560.012 9.1 559.499 9.54C559.059 9.90666 558.546 10.2367 557.959 10.53C556.786 11.1167 555.942 11.52 555.429 11.74C554.842 11.8867 553.486 12.51 551.359 13.61C549.232 14.6367 547.839 15.2967 547.179 15.59C546.152 16.03 545.126 16.47 544.099 16.91C542.779 17.79 542.009 18.67 541.789 19.55C541.716 19.6967 541.642 19.88 541.569 20.1C541.496 20.32 541.386 20.6133 541.239 20.98C541.166 21.3467 541.019 21.86 540.799 22.52C540.579 23.18 540.286 24.0967 539.919 25.27C538.159 30.8433 537.279 33.9967 537.279 34.73L539.479 34.51C542.779 33.5567 544.686 33.3 545.199 33.74C545.492 33.74 545.896 33.6667 546.409 33.52C549.636 32.7133 552.056 32.3833 553.669 32.53C553.962 32.3833 554.329 32.5667 554.769 33.08C555.282 33.5933 555.539 34.07 555.539 34.51C555.832 35.4633 555.906 36.3433 555.759 37.15C555.686 37.8833 555.099 38.5433 553.999 39.13L552.569 40.01L545.419 42.98L542.779 43.75C540.359 44.85 538.416 45.4733 536.949 45.62L535.079 44.85ZM583.629 21.53C583.629 24.9767 583.153 29.56 582.199 35.28C582.639 34.9133 583.299 34.29 584.179 33.41C585.206 32.3833 587.259 30.88 590.339 28.9L591.989 27.69L595.289 26.04L598.919 23.62C598.773 23.4733 598.956 23.1067 599.469 22.52C600.863 20.1 601.669 17.9733 601.889 16.14C601.889 15.1867 601.743 14.49 601.449 14.05C601.156 13.5367 600.239 13.2067 598.699 13.06C598.553 12.9133 597.856 12.73 596.609 12.51C593.603 12.51 591.586 12.6933 590.559 13.06C589.606 13.4267 588.873 13.61 588.359 13.61L586.709 14.05L584.839 14.16L584.399 17.13C584.399 17.2033 584.253 17.9367 583.959 19.33C583.959 19.8433 583.849 20.5767 583.629 21.53ZM602.329 70.15C601.229 69.7833 599.689 68.72 597.709 66.96C597.343 66.4467 596.389 65.5667 594.849 64.32C593.383 63.44 591.549 61.7167 589.349 59.15C589.349 59.0767 589.093 58.49 588.579 57.39C587.699 56.5833 586.856 54.97 586.049 52.55C585.976 52.4767 585.866 52.33 585.719 52.11C585.573 51.89 585.316 51.56 584.949 51.12C584.656 50.6067 584.326 49.7633 583.959 48.59C583.593 47.4167 582.859 46.1333 581.759 44.74H581.319C581.319 45.18 581.209 45.8033 580.989 46.61V48.81L580.329 55.19L578.679 65.86C578.973 66.4467 578.973 67.4367 578.679 68.83C578.679 69.4167 578.496 70.37 578.129 71.69C577.763 73.01 577.213 73.89 576.479 74.33C575.746 74.77 574.316 74.8433 572.189 74.55C571.456 74.2567 570.429 73.23 569.109 71.47C568.596 71.25 567.863 70.0767 566.909 67.95C567.056 66.63 567.093 65.8233 567.019 65.53C566.946 65.1633 566.909 64.7233 566.909 64.21C566.909 63.6967 566.946 63.3667 567.019 63.22C566.873 63.3667 566.873 62.6333 567.019 61.02V60.25C567.019 59.9567 567.239 58.7833 567.679 56.73C567.679 55.19 567.679 54.1267 567.679 53.54C567.753 52.88 568.009 52.11 568.449 51.23V48.26L568.559 45.29C568.999 43.97 569.219 42.43 569.219 40.67C569.366 39.79 569.439 38.9467 569.439 38.14C569.513 37.26 569.659 36.3067 569.879 35.28C569.879 33.6667 569.989 32.4567 570.209 31.65C570.429 30.77 570.539 30.1833 570.539 29.89C570.613 29.5233 570.686 28.9733 570.759 28.24L571.529 23.51L571.859 16.58L570.539 15.7C568.193 14.7467 566.543 13.7933 565.589 12.84C565.223 12.62 565.076 12.07 565.149 11.19C565.296 10.2367 565.809 9.46666 566.689 8.88C567.716 8.88 569.219 8.25667 571.199 7.01C571.419 7.01 572.079 6.64333 573.179 5.91L575.159 5.25C575.379 5.03 576.296 4.62666 577.909 4.04C578.276 4.04 578.863 3.85666 579.669 3.49C580.476 3.05 581.319 2.79333 582.199 2.72C582.933 2.64666 584.399 2.46333 586.599 2.16999C588.873 1.80333 590.779 1.84 592.319 2.28C593.273 2.28 594.299 2.46333 595.399 2.83C597.159 2.83 599.139 3.41666 601.339 4.59C601.853 4.59 602.586 4.92 603.539 5.58L605.629 6.57L608.379 8.76999C609.919 10.0167 611.313 11.5933 612.559 13.5C613.439 14.38 613.769 15.5167 613.549 16.91C612.523 23.29 608.086 29.6333 600.239 35.94L597.049 37.37L591.659 40.78C593.493 43.3467 595.876 46.3533 598.809 49.8C599.029 50.3133 599.873 51.34 601.339 52.88L605.079 57.5L606.399 59.48L609.369 62.78C609.589 63.2933 610.213 63.9167 611.239 64.65L613.109 66.41C614.796 67.73 615.493 69.2333 615.199 70.92C614.906 72.6067 613.879 73.4867 612.119 73.56L609.479 73.34L604.199 71.91L602.329 70.15Z" fill="#2F518A"/>
</svg>
