<svg width="632" height="74" viewBox="0 0 632 74" fill="none" xmlns="http://www.w3.org/2000/svg">
<path d="M22.7643 40.424C25.6443 40.04 27.1483 39.816 27.2763 39.752C27.4683 39.624 27.6603 39.528 27.8523 39.464C28.4283 39.336 29.1963 38.984 30.1562 38.408C30.4763 38.344 30.8923 38.184 31.4043 37.928C31.9163 37.672 32.5563 37.448 33.3243 37.256C34.1563 37.064 34.7323 36.872 35.0523 36.68C35.3723 36.488 36.0123 36.232 36.9723 35.912C37.1003 35.784 37.4203 34.952 37.9323 33.416C38.4443 31.816 38.7643 30.888 38.8923 30.632L38.0283 30.056C37.1323 30.056 35.2763 30.312 32.4603 30.824C32.0763 31.016 29.8683 31.432 25.8363 32.072C24.4923 35.144 23.8203 36.936 23.8203 37.448C23.8203 37.96 23.4683 38.952 22.7643 40.424ZM0.97225 45.992C0.97225 45.48 1.35625 45.096 2.12425 44.84C2.12425 44.712 2.57225 44.52 3.46825 44.264C6.41225 43.624 7.91625 43.208 7.98025 43.016C8.23625 42.888 10.1243 42.344 13.6443 41.384C14.1563 41.192 14.5083 40.936 14.7003 40.616C14.9563 40.296 15.5003 39.208 16.3323 37.352C16.7803 36.84 17.0043 36.36 17.0043 35.912C17.0683 35.464 16.9403 35.24 16.6203 35.24C16.3643 35.24 15.0203 35.56 12.5883 36.2C10.1563 36.776 7.88425 37.064 5.77225 37.064C3.66025 37.064 2.47625 36.424 2.22025 35.144C1.90025 34.888 1.74025 34.344 1.74025 33.512C1.74025 32.616 1.90025 32.008 2.22025 31.688C2.54025 31.368 3.46825 31.112 5.00425 30.92L11.5323 29.288C14.7963 28.072 16.7803 27.304 17.4843 26.984C18.1883 26.6 18.6043 26.376 18.7323 26.312C18.9243 26.248 19.2123 26.12 19.5963 25.928C20.0443 25.736 20.4923 25.544 20.9403 25.352C21.0043 25.032 21.4843 23.528 22.3803 20.84C23.2763 18.152 23.8523 16.36 24.1083 15.464C24.3643 14.952 24.7483 14.504 25.2603 14.12C26.7323 10.024 27.5003 7.944 27.5643 7.88C27.6923 7.752 27.9803 7.144 28.4283 6.056C29.0683 4.136 29.9643 2.952 31.1163 2.504C32.0763 2.504 32.8123 2.728 33.3243 3.17599C33.7723 3.432 34.3803 3.976 35.1483 4.808C35.9163 5.64 36.2683 6.312 36.2043 6.824C36.2043 7.272 35.6603 8.232 34.5723 9.704C34.3803 10.28 34.0923 11.176 33.7083 12.392C33.3243 13.544 33.0363 14.312 32.8443 14.696C32.5883 15.336 32.1403 16.808 31.5002 19.112C30.0923 21.16 29.3883 22.632 29.3883 23.528C29.6443 23.656 30.1563 23.656 30.9243 23.528C31.7563 23.4 32.2363 23.24 32.3643 23.048C32.6843 23.048 33.1643 22.824 33.8043 22.376C34.0603 22.376 34.3483 22.28 34.6683 22.088C35.0523 21.832 35.2763 21.64 35.3403 21.512C36.4283 21.32 37.0043 21.192 37.0683 21.128C40.0123 20.744 41.7403 19.88 42.2523 18.536C42.2523 17.512 42.5083 16.488 43.0203 15.464C43.5323 14.44 43.7563 13.832 43.6923 13.64C43.6923 13.448 43.8843 12.648 44.2683 11.24C44.9083 9.512 45.2923 8.296 45.4203 7.592C45.6123 6.888 45.8683 6.44 46.1883 6.248C46.5723 5.608 46.7643 5.096 46.7643 4.712C47.0203 4.072 47.4363 3.56 48.0123 3.17599C49.5483 2.408 50.8603 2.408 51.9483 3.17599C52.4603 3.432 53.0683 3.88 53.7723 4.51999C54.0923 4.51999 54.7643 4.936 55.7883 5.768L56.8442 7.976C56.7163 8.104 56.5563 8.392 56.3643 8.84C56.2363 9.288 56.1083 9.64 55.9803 9.896C55.8523 10.088 55.5003 10.888 54.9243 12.296C53.6443 15.688 53.1323 17.416 53.3883 17.48L58.2843 16.616L59.7243 17.192C62.3483 18.28 63.8523 20.328 64.2363 23.336C64.5563 24.232 64.3963 24.84 63.7563 25.16C63.3723 24.712 61.8363 24.776 59.1483 25.352L49.1643 26.984C47.7563 32.36 47.0843 35.08 47.1483 35.144C49.9003 35.144 52.2043 35.08 54.0603 34.952C55.4043 34.696 56.9083 35.112 58.5723 36.2C59.4043 37.032 59.9163 38.216 60.1083 39.752C60.3003 41.288 60.1723 42.504 59.7243 43.4C58.2523 43.4 56.1403 43.72 53.3883 44.36C48.6523 44.872 45.9643 45.128 45.3243 45.128C44.6843 45.128 44.3323 45.192 44.2683 45.32C44.2683 45.384 43.3083 48.616 41.3883 55.016C40.2363 60.328 39.5963 63.496 39.4683 64.52C39.3403 65.48 39.1803 66.184 38.9883 66.632C38.7963 67.08 38.3483 67.304 37.6443 67.304C37.0043 67.304 36.2363 67.208 35.3403 67.016C34.5083 66.888 33.8043 66.728 33.2283 66.536C32.6523 66.344 32.3643 66.184 32.3643 66.056C32.3643 65.928 31.9163 65.704 31.0203 65.384C31.0203 65.32 30.7643 64.52 30.2523 62.984C30.1883 62.728 30.2203 61.992 30.3483 60.776C30.2203 58.792 30.4763 57 31.1163 55.4C31.6283 55.272 31.8843 54.632 31.8843 53.48C32.1403 52.008 32.3963 51.016 32.6523 50.504C32.9083 49.928 33.0043 49.32 32.9403 48.68C32.8763 48.04 32.6523 47.72 32.2683 47.72C31.8843 47.72 30.9883 47.912 29.5803 48.296C28.2363 48.68 27.0203 49 25.9323 49.256C23.4363 49.832 22.0283 50.12 21.7083 50.12C20.8763 50.248 20.3323 50.44 20.0763 50.696C19.8843 50.888 19.6923 51.464 19.5003 52.424C19.3083 53.384 18.9883 54.568 18.5403 55.976C18.5403 56.232 18.3483 57.064 17.9643 58.472C17.5803 60.712 17.0043 62.632 16.2363 64.232L16.0443 65.576C16.0443 65.704 15.9483 65.928 15.7563 66.248C15.6283 66.568 15.4683 66.888 15.2763 67.208C15.0843 67.592 14.7323 67.784 14.2203 67.784C13.7723 67.784 13.2283 67.656 12.5883 67.4C12.0123 67.208 11.5003 67.176 11.0523 67.304C10.9883 67.24 10.8603 67.176 10.6683 67.112C10.0923 66.792 9.54825 66.376 9.03625 65.864C8.84425 65.864 8.49225 65.544 7.98025 64.904C7.08425 63.944 7.05225 62.376 7.88425 60.2C8.46025 58.408 8.71625 57.352 8.65225 57.032C8.78025 56.712 9.19625 55.272 9.90025 52.712C10.0283 52.584 9.13225 52.68 7.21225 53C5.29225 53.32 4.30025 53.48 4.23625 53.48C3.34025 53.48 2.44425 52.68 1.54825 51.08C0.97225 49.928 0.68425 49.16 0.68425 48.776C0.62025 48.392 0.74825 47.944 1.06825 47.432L0.97225 45.992ZM87.0588 25.256L88.5948 21.992C88.9148 21.096 89.0428 20.392 88.9788 19.88C88.9788 19.368 88.9788 18.952 88.9788 18.632C88.9788 18.312 88.9468 17.928 88.8828 17.48C88.8188 16.968 88.5948 16.488 88.2108 16.04C87.8908 15.528 87.5388 15.208 87.1548 15.08C86.8348 14.888 86.1948 14.6 85.2348 14.216L83.1228 14.12C81.2028 13.736 79.5708 13.896 78.2268 14.6C78.2268 16.008 77.8748 18.952 77.1708 23.432L76.5948 30.056L76.1148 33.512C76.5628 33.512 77.7148 33.16 79.5708 32.456L80.9148 31.304C81.1708 31.24 81.9708 30.536 83.3148 29.192C83.6348 29.064 83.9868 28.744 84.3708 28.232L85.3308 27.08C85.5228 27.144 85.8748 26.824 86.3868 26.12L87.0588 25.256ZM75.9228 50.888L76.1148 53.192C76.3708 53.768 76.3708 54.6 76.1148 55.688C75.8588 56.776 75.8268 57.608 76.0188 58.184C76.0188 59.272 76.0508 59.912 76.1148 60.104C76.6908 60.104 77.5548 59.848 78.7068 59.336C79.9228 58.824 80.6908 58.536 81.0108 58.472C81.3308 58.408 81.7468 58.152 82.2588 57.704C83.8588 56.872 85.5228 55.912 87.2508 54.824L89.4588 52.808C91.3148 50.568 92.5948 48.936 93.2988 47.912L93.8748 46.184C94.7068 44.392 93.9068 42.696 91.4748 41.096C90.9628 40.328 89.9068 39.816 88.3068 39.56H88.2108C85.9708 38.92 84.6588 38.664 84.2748 38.792L80.0508 39.752C79.2828 40.136 78.5788 40.328 77.9388 40.328C77.3628 40.328 76.7228 40.04 76.0188 39.464L76.1148 42.152C75.6668 43.368 75.5388 44.552 75.7308 45.704C75.9868 46.856 76.0508 48.584 75.9228 50.888ZM80.1468 67.976H79.2828C78.6428 68.104 77.3948 68.008 75.5388 67.688C72.2748 67.176 69.6508 66.152 67.6668 64.616C67.0908 64.104 66.4188 63.432 65.6508 62.6C64.9468 61.704 64.5948 61.096 64.5948 60.776C64.5948 60.456 64.5948 60.04 64.5948 59.528C64.6588 59.016 64.6268 58.504 64.4988 57.992V57.224C64.3068 56.84 64.3388 56.168 64.5948 55.208C64.8508 54.184 64.9148 53.352 64.7868 52.712C64.6588 51.88 64.5628 50.984 64.4988 50.024C64.3068 49.768 64.4028 49.064 64.7868 47.912C65.2988 39.272 65.5547 34.536 65.5547 33.704L66.0348 30.824C65.7148 28.904 65.7788 27.24 66.2268 25.832V23.72C66.1628 22.824 66.4188 20.232 66.9948 15.944C66.7388 15.176 65.8748 14.184 64.4028 12.968C64.0828 12.648 63.7628 12.168 63.4428 11.528C63.1228 10.824 63.2508 9.736 63.8268 8.264C64.2108 7.752 65.3308 6.92 67.1868 5.768C67.3148 5.384 69.0428 4.648 72.3708 3.56L74.1948 2.792C75.0908 2.472 76.8828 2.344 79.5708 2.408C81.0428 2.6 82.2268 2.888 83.1228 3.272C86.3868 4.872 89.3948 6.696 92.1468 8.744C92.9788 9.128 93.5548 9.64 93.8748 10.28C95.0268 11.048 96.0828 12.296 97.0428 14.024C98.0668 15.688 98.6428 16.744 98.7708 17.192C99.0908 19.24 98.7708 21.704 97.8108 24.584C97.3628 26.056 95.2508 29.128 91.4748 33.8C92.1148 33.992 93.2028 34.536 94.7388 35.432C94.9308 35.688 95.6028 36.136 96.7548 36.776C96.8828 36.968 97.0428 37.192 97.2348 37.448C97.4908 37.704 97.6828 37.928 97.8108 38.12L98.5788 38.6L99.5388 40.04L100.979 41.288C101.619 41.928 102.131 42.632 102.515 43.4C103.475 44.296 103.987 45.032 104.051 45.608L104.243 47.432C104.179 48.136 103.219 50.44 101.363 54.344C100.659 55.752 99.7628 56.84 98.6748 57.608L97.2348 59.336C96.8508 59.848 96.1148 60.488 95.0268 61.256C94.0028 62.024 93.1388 62.76 92.4348 63.464C92.1148 63.592 91.6028 63.88 90.8988 64.328C90.2588 64.776 89.2668 65.32 87.9228 65.96C86.6428 66.6 85.7788 66.984 85.3308 67.112C84.0508 67.496 82.3228 67.784 80.1468 67.976ZM123.771 39.08C123.899 38.952 124.635 38.824 125.979 38.696C127.387 38.504 129.019 37.928 130.875 36.968C130.939 36.968 130.907 36.2 130.779 34.664C130.587 31.976 130.427 30.056 130.299 28.904C130.171 27.368 130.043 26.28 129.915 25.64C129.915 24.424 129.435 21.896 128.475 18.056L124.251 32.36C123.355 36.328 123.003 38.76 123.195 39.656L123.771 39.08ZM110.811 41.864L111.387 37.64C111.387 36.808 111.515 35.976 111.771 35.144C111.771 34.056 112.315 32.424 113.403 30.248C113.403 30.12 113.691 29.288 114.267 27.752C114.267 27.624 114.875 25.736 116.091 22.088L117.243 19.304C117.243 19.048 117.403 18.568 117.723 17.864C118.043 17.096 118.267 16.36 118.395 15.656C118.587 14.888 118.811 14.152 119.067 13.448C119.963 11.72 120.763 10.248 121.467 9.032C122.811 6.472 125.307 5.32 128.955 5.576L132.027 5.86399C133.947 6.376 135.419 6.92 136.443 7.496C137.915 8.072 138.907 8.712 139.419 9.41599C139.931 10.056 140.155 11.144 140.091 12.68C140.155 13.448 140.347 16.776 140.667 22.664C140.987 28.552 141.147 31.528 141.147 31.592L141.627 35.72C141.627 36.104 142.331 40.712 143.739 49.544L145.851 56.264C147.131 59.848 147.803 61.736 147.867 61.928C147.995 62.056 148.283 62.728 148.731 63.944C149.435 66.056 148.827 67.464 146.907 68.168C145.179 68.424 143.899 68.264 143.067 67.688C142.747 67.688 142.011 67.4 140.859 66.824C140.731 66.504 140.347 66.184 139.707 65.864C139.131 65.608 138.747 65.384 138.555 65.192C137.851 65 137.211 64.008 136.635 62.216C136.443 62.088 136.091 61.576 135.579 60.68C135.131 59.784 135.003 59.048 135.195 58.472C134.747 57.896 134.523 56.712 134.523 54.92C133.947 53.96 133.659 52.456 133.659 50.408C133.659 48.36 133.339 46.76 132.699 45.608C129.435 47.08 125.947 47.88 122.235 48.008C121.531 48.008 121.179 48.136 121.179 48.392C121.179 48.968 120.987 49.992 120.603 51.464L118.971 62.024C119.611 66.76 119.035 69.256 117.243 69.512C116.731 69.512 115.867 69.64 114.651 69.896C113.499 70.152 112.539 69.928 111.771 69.224C110.299 68.392 109.243 67.528 108.603 66.632C108.027 65.8 107.771 64.84 107.835 63.752C107.899 62.856 108.059 60.936 108.315 57.992C108.443 57.864 108.475 57.16 108.411 55.88C108.411 54.536 108.507 53.512 108.699 52.808L110.235 46.856C110.427 46.728 110.683 45.768 111.003 43.976C110.939 43.848 110.907 43.528 110.907 43.016L110.811 41.864ZM167.912 32.744C167.976 31.208 167.976 30.28 167.912 29.96C167.912 29.64 167.912 29.416 167.912 29.288L168.2 26.696C168.2 25.736 168.136 25 168.008 24.488C168.072 24.232 168.104 23.72 168.104 22.952C168.232 22.696 168.296 22.344 168.296 21.896C168.296 21.384 168.456 19.528 168.776 16.328C167.368 16.648 166.44 16.872 165.992 17L162.152 17.192C160.424 17.704 159.176 17.96 158.408 17.96C156.616 18.472 155.56 18.696 155.24 18.632C153.64 18.76 152.584 18.632 152.072 18.248C151.368 17.416 151.016 16.232 151.016 14.696C150.76 13.352 150.728 12.456 150.92 12.008C151.624 11.048 152.072 10.504 152.264 10.376C152.52 10.184 153.096 9.992 153.992 9.8C154.888 9.608 155.752 9.16 156.584 8.456L161.768 6.344C161.768 6.344 162.504 6.216 163.976 5.96C165.512 5.64 166.664 5.288 167.432 4.904C167.752 4.904 168.456 4.808 169.544 4.616C170.632 4.424 171.304 4.36 171.56 4.424C171.816 4.424 172.264 4.232 172.904 3.848L179.048 3.272C179.112 3.336 179.464 3.4 180.104 3.464C181.064 3.592 182.248 3.432 183.656 2.984C184.68 3.112 185.544 3.144 186.248 3.08C186.568 3.208 187.528 3.016 189.128 2.504C189.512 2.504 189.864 2.472 190.184 2.408C190.504 2.28 191.24 2.088 192.392 1.832C193.096 1.832 193.672 1.99199 194.12 2.31199C194.44 2.248 194.792 2.44 195.176 2.888C195.624 3.336 196.072 3.944 196.52 4.712C197.544 6.248 198.152 7.144 198.344 7.4C199.176 8.744 199.72 10.12 199.976 11.528C200.232 12.04 200.296 12.392 200.168 12.584C200.04 12.776 199.592 12.936 198.824 13.064C198.504 12.808 198.12 12.712 197.672 12.776C197.224 12.776 195.848 12.936 193.544 13.256L191.912 13.16C190.376 13.544 188.424 13.736 186.056 13.736L180.104 13.928L179.528 14.216C179.144 18.952 179.016 22.024 179.144 23.432C179.464 25.864 179.56 27.144 179.432 27.272V29.192C180.072 40.712 180.424 46.696 180.488 47.144C180.616 47.592 180.68 48.488 180.68 49.832L181.352 57.608C181.736 58.056 181.96 58.792 182.024 59.816C182.088 61.16 181.736 61.96 180.968 62.216C179.624 62.664 178.536 63.08 177.704 63.464C176.872 63.784 175.56 63.816 173.768 63.56C173.768 63.368 173.032 63.048 171.56 62.6C171.56 62.536 171.144 62.056 170.312 61.16C170.056 60.84 169.928 60.392 169.928 59.816C169.544 58.28 169.352 56.232 169.352 53.672C168.968 51.88 168.904 50.536 169.16 49.64C169.096 49.576 168.872 48.488 168.488 46.376V42.824C168.488 42.312 168.328 41.8 168.008 41.288L167.912 38.312V32.744ZM212.99 27.848C212.798 28.04 212.67 28.584 212.606 29.48L212.126 35.336C212.062 35.4 212.03 38.184 212.03 43.688C212.286 44.52 212.638 46.12 213.086 48.488L214.334 50.696C214.59 50.824 214.974 51.4 215.486 52.424C215.934 52.744 216.19 52.968 216.254 53.096C216.318 53.224 216.414 53.384 216.542 53.576C216.67 53.768 216.734 53.896 216.734 53.96L217.31 54.056C217.374 54.056 217.662 54.184 218.174 54.44C220.03 55.592 221.854 55.208 223.646 53.288C224.414 52.392 225.15 51.592 225.854 50.888C226.366 50.12 227.006 49.544 227.774 49.16C230.014 47.56 231.838 47.688 233.246 49.544C233.566 50.056 233.566 51.272 233.246 53.192C232.99 55.048 232.03 57.064 230.366 59.24C229.406 60.84 228.19 62.088 226.718 62.984C226.59 63.368 224.158 63.624 219.422 63.752L217.886 63.464C217.374 63.592 215.774 63.24 213.086 62.408L211.838 62.12C211.326 62.12 210.814 61.928 210.302 61.544C209.854 61.16 209.054 60.584 207.902 59.816C206.75 58.984 205.854 58.312 205.214 57.8C203.358 56.328 202.046 54.504 201.278 52.328C201.022 51.88 200.862 51.272 200.798 50.504C200.798 49.672 200.702 49.064 200.51 48.68C199.998 48.168 199.774 47.368 199.838 46.28C199.966 45.128 199.966 43.912 199.838 42.632V41.864C199.838 41.16 199.87 40.712 199.934 40.52C199.678 40.264 199.582 39.72 199.646 38.888C199.966 34.728 200.126 32.392 200.126 31.88C200.254 31.624 200.286 31.144 200.222 30.44C200.222 29.736 200.318 28.904 200.51 27.944C200.19 27.304 200.19 26.472 200.51 25.448L200.702 22.568C200.766 21.608 200.926 20.744 201.182 19.976C201.502 19.144 201.79 18.184 202.046 17.096C202.366 15.944 203.294 14.28 204.83 12.104C204.83 11.592 205.31 10.984 206.27 10.28C206.27 10.024 206.526 9.64 207.038 9.128C207.614 8.616 208.478 7.784 209.63 6.632C209.95 6.12 210.686 5.608 211.838 5.096C212.99 4.52 214.078 3.912 215.102 3.272C215.614 3.08 216.542 2.984 217.886 2.984C218.654 2.664 220.318 2.76 222.878 3.272C224.094 3.272 226.142 3.816 229.022 4.904C229.086 4.968 229.246 5.096 229.502 5.288C229.758 5.416 230.078 5.608 230.462 5.86399C231.614 6.632 232.254 7.016 232.382 7.016C234.878 9.128 236.286 11.88 236.606 15.272C236.926 16.936 236.926 18.216 236.606 19.112C236.606 20.072 236.126 21.608 235.166 23.72L233.918 25.352H233.246C228.958 25.992 226.046 25.256 224.51 23.144C224.318 22.76 224.222 22.408 224.222 22.088C224.286 21.768 224.382 21.48 224.51 21.224C224.894 20.2 225.086 19.688 225.086 19.688C225.982 17.832 225.982 16.104 225.086 14.504C225.086 14.312 224.766 13.992 224.126 13.544C223.55 13.032 223.23 12.712 223.166 12.584C222.462 12.072 221.694 11.912 220.862 12.104C219.198 12.744 217.822 14.632 216.734 17.768C215.646 18.92 214.654 21.064 213.758 24.2C213.758 24.648 213.63 25.256 213.374 26.024C213.118 26.728 212.99 27.336 212.99 27.848ZM244.992 48.584C245.12 48.392 245.12 47.944 244.992 47.24C244.736 44.936 244.704 43.336 244.896 42.44C244.64 38.984 244.544 36.968 244.608 36.392C244.736 35.816 244.928 35.496 245.184 35.432C244.928 35.048 244.672 33.64 244.416 31.208C244.224 28.776 244.192 27.144 244.32 26.312C244.192 25.8 244.16 25.192 244.224 24.488C244.288 23.72 244.384 23.208 244.512 22.952C244.384 22.824 244.288 22.344 244.224 21.512V17.192L244.416 14.696V12.584L244.992 9.608C244.8 9.288 244.96 8.712 245.472 7.88C244.832 6.536 245.504 4.872 247.488 2.888C247.552 2.76 248.288 2.344 249.696 1.64C250.848 1.576 251.616 1.576 252 1.64C252.448 1.704 253.088 1.768 253.92 1.832C254.816 1.896 255.488 1.992 255.936 2.12C257.088 2.504 257.664 3.528 257.664 5.192V6.824C257.792 9.128 257.856 10.856 257.856 12.008V14.12C257.856 14.952 257.792 15.432 257.664 15.56C257.728 15.816 257.728 16.424 257.664 17.384V19.016C257.472 21 257.408 22.152 257.472 22.472L256.8 27.56C257.312 27.752 259.136 27.848 262.272 27.848H267.072C269.888 27.848 271.648 27.848 272.352 27.848C273.12 27.784 273.6 27.56 273.792 27.176C274.048 26.792 274.24 26.28 274.368 25.64C274.496 25 274.592 24.264 274.656 23.432C274.72 22.6 274.784 22.088 274.848 21.896C275.232 21.576 275.328 20.2 275.136 17.768C275.136 17.576 275.264 17.096 275.52 16.328C275.52 15.432 275.648 14.408 275.904 13.256C275.904 12.04 276.096 10.984 276.48 10.088C276.928 9.128 277.248 8.328 277.44 7.688C277.76 6.6 278.528 5.672 279.744 4.904C281.344 3.752 282.88 3.016 284.352 2.696H286.08C287.808 3.016 288.384 4.64799 287.808 7.592C287.808 8.552 287.552 9.8 287.04 11.336C286.464 14.344 286.176 16.296 286.176 17.192C286.176 18.088 285.92 19.72 285.408 22.088C285.536 23.304 285.536 24.104 285.408 24.488C285.344 24.872 285.312 25.352 285.312 25.928C285.184 27.336 285.12 28.296 285.12 28.808C284.992 30.728 284.928 32.264 284.928 33.416C284.928 34.568 284.832 35.816 284.64 37.16C284.64 38.504 284.416 39.88 283.968 41.288L283.68 47.432C283.68 47.88 283.904 51.176 284.352 57.32C284.736 57.704 284.864 58.472 284.736 59.624C284.608 60.712 284.384 61.48 284.064 61.928C283.744 62.376 283.392 62.632 283.008 62.696C282.688 62.76 282.176 62.792 281.472 62.792C280 63.624 278.816 63.944 277.92 63.752C277.152 63.752 276.352 63.496 275.52 62.984C274.176 62.28 273.312 61.416 272.928 60.392C272.928 59.944 272.832 59.4 272.64 58.76C272.512 58.12 272.512 57.448 272.64 56.744C272.768 55.976 272.8 55.176 272.736 54.344C272.736 53.512 272.736 52.552 272.736 51.464L272.832 50.312C272.704 50.056 272.768 49.64 273.024 49.064C273.28 48.488 273.312 48.04 273.12 47.72V45.128L273.6 40.232C272.96 39.784 272.928 38.728 273.504 37.064L273.696 36.296C272.928 36.488 272.224 36.584 271.584 36.584C269.792 37.032 267.808 37.256 265.632 37.256L256.992 36.968V38.024C256.864 39.048 256.832 40.584 256.896 42.632V44.456C256.96 46.12 256.992 48.488 256.992 51.56C257.248 54.888 257.376 57.288 257.376 58.76L257.28 59.432C257.28 59.944 257.216 60.392 257.088 60.776C257.088 61.992 256.768 62.824 256.128 63.272C255.552 63.72 254.592 64.008 253.248 64.136C251.904 64.264 250.688 63.912 249.6 63.08C248.064 62.312 247.264 61.672 247.2 61.16C247.136 60.648 246.944 59.976 246.624 59.144C246.304 58.632 246.08 58.024 245.952 57.32C245.952 55.272 245.92 54.12 245.856 53.864C245.664 53.608 245.568 53.16 245.568 52.52C245.568 51.688 245.376 50.376 244.992 48.584ZM319.647 31.592L318.015 22.952C317.567 20.968 317.375 19.848 317.439 19.592C317.567 19.272 317.599 19.08 317.535 19.016C317.535 18.888 317.503 18.664 317.439 18.344C317.439 18.024 317.407 17.64 317.343 17.192C316.895 16.168 316.639 15.368 316.575 14.792C315.359 11.528 314.879 9.32 315.135 8.168C315.455 7.016 316.383 6.28 317.919 5.96C318.303 5.832 319.199 5.768 320.607 5.768C322.015 5.768 322.975 5.832 323.487 5.96C324.063 6.088 324.703 6.632 325.407 7.592C326.367 8.872 327.103 11.912 327.615 16.712C328.127 19.848 328.415 21.64 328.479 22.088C328.607 22.472 328.671 22.856 328.671 23.24C329.247 25.992 329.535 27.432 329.535 27.56V29.672C330.111 31.208 330.527 32.872 330.783 34.664C332.383 43.304 333.119 47.688 332.991 47.816C333.183 50.824 333.823 51.08 334.911 48.584L335.583 46.472L336.447 44.744C337.023 42.44 337.343 41.16 337.406 40.904L338.751 36.68C338.751 36.616 338.943 36.104 339.327 35.144C339.647 34.248 339.903 33.192 340.095 31.976C340.351 30.76 340.479 30.088 340.479 29.96C340.543 29.768 340.671 29.48 340.863 29.096C341.503 27.304 341.823 25.96 341.823 25.064C341.823 24.104 341.951 23.112 342.207 22.088C342.207 20.808 342.367 19.688 342.687 18.728C343.263 17.064 343.519 16.136 343.455 15.944C343.391 15.688 344.063 13.704 345.471 9.992C346.495 7.432 348.351 5.736 351.039 4.904C352.191 4.584 353.407 4.424 354.687 4.424C355.967 4.424 356.831 4.584 357.279 4.904C357.791 5.16 358.079 5.8 358.143 6.824C358.015 7.208 357.919 7.624 357.855 8.07199C357.855 8.456 357.823 8.744 357.759 8.936C355.455 15.848 354.111 19.592 353.727 20.168C353.343 20.744 353.151 21.096 353.151 21.224C352.383 22.184 351.999 22.952 351.999 23.528L348.927 33.32L347.487 37.832C346.655 39.496 346.239 40.648 346.239 41.288C346.239 41.928 346.079 42.696 345.759 43.592C345.503 44.424 345.311 44.904 345.183 45.032C345.119 45.096 344.991 45.48 344.799 46.184C344.607 46.888 344.511 47.624 344.511 48.392C344.255 48.52 344.127 49.064 344.127 50.024C343.743 50.664 343.487 51.784 343.359 53.384C343.039 53.832 342.847 54.6 342.783 55.688C342.143 57.992 341.311 59.784 340.286 61.064C339.263 62.344 337.791 63.144 335.871 63.464C333.951 63.912 332.607 63.912 331.839 63.464C331.583 63.528 331.167 63.464 330.591 63.272C330.271 63.272 330.047 63.208 329.919 63.08C329.535 63.08 328.895 62.888 327.999 62.504C327.167 62.12 326.463 61.64 325.887 61.064C325.375 60.488 324.799 59.816 324.159 59.048C324.031 58.728 323.647 58.12 323.007 57.224C322.815 55.688 322.559 54.76 322.239 54.44C322.111 54.12 322.047 53.896 322.047 53.768L321.471 51.656C321.535 51.72 321.599 51.816 321.663 51.944C321.535 50.216 321.503 48.776 321.567 47.624C321.311 47.048 321.311 46.152 321.567 44.936C321.567 43.848 321.343 42.728 320.895 41.576C320.575 40.68 320.223 38.728 319.839 35.72C319.839 34.12 319.775 32.744 319.647 31.592ZM372.603 34.184C372.411 34.376 372.251 35.624 372.123 37.928C371.995 40.232 371.867 41.512 371.739 41.768L371.835 47.144C372.155 49.064 372.475 50.44 372.795 51.272C373.115 52.104 373.307 52.616 373.371 52.808C373.435 53 373.499 53.224 373.563 53.48C373.627 53.672 373.947 54.088 374.523 54.728C375.099 55.368 375.579 55.976 375.963 56.552C376.027 56.552 376.283 56.744 376.731 57.128C377.819 57.96 378.715 58.216 379.419 57.896C379.483 57.896 379.835 57.736 380.475 57.416C380.475 57.224 380.859 57.032 381.627 56.84C381.691 56.84 381.883 56.584 382.203 56.072C382.331 56.072 382.587 55.848 382.971 55.4C382.971 55.208 383.163 54.952 383.547 54.632C383.931 54.248 384.251 53.928 384.507 53.672C384.443 53.544 384.763 52.936 385.467 51.848C385.723 51.848 386.427 50.6 387.579 48.104C388.923 45.288 389.595 43.816 389.595 43.688C389.595 43.496 389.755 42.856 390.075 41.768C390.395 40.616 390.587 39.816 390.651 39.368C390.779 38.856 390.907 38.44 391.035 38.12C391.163 37.8 391.227 37.064 391.227 35.912C391.355 35.848 391.579 34.408 391.899 31.592V28.328L391.803 23.912C391.675 23.528 391.611 23.112 391.611 22.664C391.611 22.216 391.547 21.864 391.419 21.608C391.355 21.352 391.291 20.936 391.227 20.36C390.907 17.736 390.363 16.04 389.595 15.272C389.595 15.016 389.083 14.44 388.059 13.544L387.099 13.352C386.075 13.224 384.251 13.928 381.627 15.464C381.499 15.464 380.955 15.848 379.995 16.616C379.099 17.384 378.555 17.896 378.363 18.152C378.171 18.216 377.819 18.504 377.307 19.016C375.515 20.68 373.947 25.736 372.603 34.184ZM386.043 3.08C386.747 3.08 387.451 3.08 388.155 3.08L391.131 3.752C391.835 3.88 392.475 4.264 393.051 4.904C397.019 7.976 399.131 10.216 399.387 11.624C399.707 12.392 399.931 12.936 400.059 13.256C400.187 13.576 400.315 13.896 400.443 14.216V14.312C400.443 14.44 400.475 14.632 400.539 14.888C400.923 16.04 401.275 17.928 401.595 20.552C402.107 23.048 402.171 25.736 401.787 28.616C401.787 29.576 401.723 30.312 401.595 30.824C401.659 31.528 401.563 32.584 401.307 33.992C401.499 34.504 401.307 35.304 400.731 36.392C400.731 37.16 400.443 38.536 399.867 40.52C400.059 40.904 399.515 42.728 398.235 45.992C396.955 49.256 395.323 52.648 393.339 56.168C392.443 57.96 391.003 59.976 389.019 62.216C388.635 62.792 387.707 63.688 386.235 64.904C384.635 66.632 383.163 67.72 381.819 68.168C381.627 68.232 381.147 68.232 380.379 68.168C379.611 68.168 379.131 68.072 378.939 67.88C378.107 67.88 377.563 67.816 377.307 67.688C377.115 67.56 376.987 67.496 376.923 67.496C376.603 67.368 376.219 67.24 375.771 67.112C375.387 67.048 374.971 66.92 374.523 66.728C374.075 66.536 373.787 66.44 373.659 66.44C373.531 66.44 373.403 66.408 373.275 66.344C373.211 66.28 372.923 66.184 372.411 66.056C371.963 65.928 370.715 65.352 368.667 64.328C368.603 64.328 368.315 64.04 367.803 63.464L366.267 62.408C365.819 62.408 365.435 61.928 365.115 60.968C364.731 60.584 364.443 60.136 364.251 59.624C363.547 59.624 362.939 57.768 362.427 54.056C362.107 52.456 361.851 50.568 361.659 48.392C361.531 48.136 361.467 47.688 361.467 47.048C361.275 45.896 361.179 44.808 361.179 43.784C361.051 43.272 360.987 42.6 360.987 41.768C360.987 40.936 360.955 40.488 360.891 40.424C360.827 40.36 360.763 39.592 360.699 38.12C360.699 36.648 360.731 35.88 360.795 35.816C360.859 35.688 360.923 35.08 360.987 33.992L361.179 29V27.272L361.371 23.432C361.371 23.112 361.467 22.472 361.659 21.512C361.787 21.384 361.979 20.456 362.235 18.728C362.747 16.552 363.099 15.272 363.291 14.888C363.547 14.44 363.707 14.088 363.771 13.832C363.899 13.576 364.059 13.32 364.251 13.064C364.443 12.808 364.763 12.232 365.211 11.336L366.939 8.744C366.939 8.616 367.131 8.36 367.515 7.976C367.963 7.592 368.315 7.368 368.571 7.304C368.699 6.92 368.955 6.696 369.339 6.632C369.787 6.504 370.459 6.152 371.355 5.576C372.059 5.32 372.411 5.128 372.411 5C373.563 4.232 374.907 3.848 376.443 3.848L377.883 3.944L380.667 5C382.971 4.104 384.347 3.65599 384.795 3.65599C384.923 3.464 385.339 3.272 386.043 3.08ZM429.75 31.88C429.75 30.536 429.75 29.704 429.75 29.384C429.814 29 429.91 27.592 430.038 25.16C430.294 24.136 430.422 23.144 430.422 22.184L430.326 18.056C430.454 17.864 430.55 16.072 430.614 12.68C430.678 9.288 430.774 7.24 430.902 6.536C430.774 5.64 431.062 4.712 431.766 3.752C432.342 2.408 433.27 1.384 434.55 0.679998H434.646C436.054 0.295996 437.878 0.551994 440.118 1.44799C441.206 1.896 441.91 2.6 442.23 3.56L442.518 5.86399C442.774 6.248 443.126 9.352 443.574 15.176C443.766 16.328 443.862 17.608 443.862 19.016C444.054 19.976 444.15 22.248 444.15 25.832V26.792C444.086 27.368 444.054 28.232 444.054 29.384V30.056C444.182 31.144 444.118 32.072 443.862 32.84C443.862 34.504 443.798 35.528 443.67 35.912C443.67 36.104 443.542 37.224 443.286 39.272C442.902 40.616 442.806 41.704 442.998 42.536C442.998 42.856 442.71 44.104 442.134 46.28C442.198 46.536 442.006 47.528 441.558 49.256C441.558 50.088 441.43 50.76 441.174 51.272C440.982 51.72 440.822 52.136 440.694 52.52C440.566 52.904 440.342 53.448 440.022 54.152C439.766 54.792 439.574 55.4 439.446 55.976C439.19 57.96 438.23 60.136 436.566 62.504L435.126 64.136C435.254 64.264 434.934 64.712 434.166 65.48C434.102 65.608 432.374 66.664 428.982 68.648C428.918 68.712 428.214 68.936 426.87 69.32C424.182 70.152 421.27 70.152 418.134 69.32C417.238 69.128 416.438 68.84 415.734 68.456C415.414 68.136 414.966 67.816 414.39 67.496C414.198 67.496 414.006 67.4 413.814 67.208C413.494 67.208 412.726 66.76 411.51 65.864C411.126 65.672 410.262 64.52 408.918 62.408C408.342 61.192 407.958 60.456 407.766 60.2C407.638 59.88 407.542 59.144 407.478 57.992C407.222 55.368 408.022 54.056 409.878 54.056C411.798 53.928 413.622 54.824 415.35 56.744C417.206 58.6 418.39 59.56 418.902 59.624C419.414 59.688 420.022 59.816 420.726 60.008C421.43 60.2 422.006 60.104 422.454 59.72C423.414 59.336 423.99 58.92 424.182 58.472C424.182 57.704 424.534 56.84 425.238 55.88C425.942 54.856 426.326 54.28 426.39 54.152C426.454 53.384 426.678 52.552 427.062 51.656V51.56C427.062 51.56 427.062 51.528 427.062 51.464C427.126 51.336 427.158 51.208 427.158 51.08C427.222 50.952 427.254 50.792 427.254 50.6L427.734 47.816C427.862 47.688 427.702 46.888 427.254 45.416C427.19 45.16 426.614 44.872 425.526 44.552C424.502 44.232 423.606 44.072 422.838 44.072C421.75 44.264 420.694 44.008 419.67 43.304C419.222 43.176 418.582 42.824 417.75 42.248C416.982 41.672 416.47 41.224 416.214 40.904C416.022 40.52 415.862 40.264 415.734 40.136C415.286 39.688 414.742 38.888 414.102 37.736C413.462 36.52 413.142 35.688 413.142 35.24L412.758 34.376C412.566 33.608 412.278 33.032 411.894 32.648C411.894 31.368 411.574 29.448 410.934 26.888L410.646 24.68V21.128C410.454 20.424 410.454 19.4 410.646 18.056L410.454 14.408L410.55 12.968L410.454 10.952C410.518 10.888 410.55 10.568 410.55 9.992V9.032C410.55 8.392 410.55 7.944 410.55 7.688C410.614 7.432 410.646 7.112 410.646 6.72799C410.646 6.28 410.678 5.96 410.742 5.768C411.382 4.04 412.694 3.016 414.678 2.696C416.726 2.312 418.198 2.472 419.094 3.17599C420.694 4.392 421.43 7.016 421.302 11.048C421.302 12.584 421.27 13.544 421.206 13.928C421.654 15.336 421.782 16.392 421.59 17.096C421.782 17.544 421.878 17.992 421.878 18.44V19.88L423.222 27.752C423.222 28.392 423.382 29.192 423.702 30.152C423.702 30.6 424.086 31.528 424.854 32.936C425.494 35.816 426.646 37.128 428.31 36.872C428.95 36.68 429.398 35.56 429.654 33.512C429.846 33.32 429.878 32.776 429.75 31.88ZM473.625 33.896V31.976C473.625 30.824 473.529 29.48 473.337 27.944C473.657 26.408 473.561 24.616 473.049 22.568C473.177 21.096 472.921 19.176 472.281 16.808C472.281 16.36 472.153 15.72 471.897 14.888L467.193 29C466.233 32.904 465.785 35.336 465.849 36.296L466.521 35.72C469.465 35.4 471.833 34.792 473.625 33.896ZM453.465 38.12C453.849 35.624 454.041 34.152 454.041 33.704C454.233 31.72 455.033 29.352 456.441 26.6C456.441 26.472 456.761 25.64 457.401 24.104C457.401 23.848 457.689 22.92 458.265 21.32C458.585 20.424 459.065 19.272 459.705 17.864C460.345 16.392 460.729 15.464 460.857 15.08C460.985 14.696 461.145 14.28 461.337 13.832C461.593 13.32 461.785 12.744 461.913 12.104C462.169 10.888 462.937 9.224 464.217 7.112C465.561 4.936 466.841 3.592 468.057 3.08C469.273 2.504 470.873 2.28 472.857 2.408L475.929 2.792C475.993 2.856 476.249 2.952 476.697 3.08C478.169 3.528 479.353 4.04 480.249 4.616C481.721 5.192 482.681 5.832 483.129 6.536C483.641 7.24 483.833 8.36 483.705 9.896C483.833 12.2 483.897 14.76 483.897 17.576L483.993 19.496C483.993 25.064 484.025 28.2 484.089 28.904L484.473 33.032C484.409 33.288 484.953 37.896 486.105 46.856L486.873 50.312C488.665 56.008 489.657 59.048 489.849 59.432C490.041 59.752 490.329 60.744 490.713 62.408C490.969 62.984 490.905 63.592 490.521 64.232C490.137 64.872 489.497 65.32 488.601 65.576C486.873 65.832 485.593 65.64 484.761 65C484.313 64.872 483.577 64.552 482.553 64.04C482.489 63.72 482.169 63.432 481.593 63.176C481.017 62.856 480.601 62.568 480.345 62.312C479.641 62.12 479.033 61.128 478.521 59.336C478.201 59.144 477.881 58.6 477.561 57.704C477.113 56.808 476.985 56.072 477.177 55.496C476.793 54.856 476.633 53.672 476.697 51.944C476.057 50.792 475.833 48.936 476.025 46.376C476.025 45.032 475.737 43.752 475.161 42.536C474.009 43.048 472.729 43.528 471.321 43.976C469.913 44.36 468.249 44.552 466.329 44.552C464.473 44.552 463.545 44.68 463.545 44.936C463.545 45.64 463.321 46.664 462.873 48.008C462.745 48.776 462.201 51.496 461.241 56.168C461.049 57.512 460.921 58.28 460.857 58.472C461.305 63.272 460.665 65.768 458.937 65.96C458.361 65.96 457.465 66.024 456.249 66.152C455.033 66.344 454.105 66.12 453.465 65.48C451.993 64.648 450.969 63.784 450.393 62.888C449.625 61.608 449.497 59.72 450.009 57.224L450.681 51.944C450.617 50.856 450.713 49.896 450.969 49.064C451.737 46.12 452.313 44.104 452.697 43.016C452.889 42.888 453.049 42.504 453.177 41.864C453.305 41.16 453.433 40.616 453.561 40.232C453.497 40.104 453.465 39.784 453.465 39.272V38.12ZM509.126 64.52L507.302 64.616C507.174 64.488 506.47 64.392 505.19 64.328C505.062 64.072 504.582 63.784 503.75 63.464C503.366 63.464 502.566 62.856 501.35 61.64C500.262 60.744 499.686 60.232 499.622 60.104C499.558 59.848 499.334 59.528 498.95 59.144C498.694 58.76 498.406 57.864 498.086 56.456C497.062 53.32 496.518 51.272 496.454 50.312C496.39 49.352 496.454 48.008 496.646 46.28C496.39 45.96 496.422 45.16 496.742 43.88C496.742 43.176 496.838 41.576 497.03 39.08V38.504L497.414 34.184C497.35 32.904 497.542 31.592 497.99 30.248C498.438 28.904 498.758 27.656 498.95 26.504C499.142 26.44 499.334 25.608 499.526 24.008C500.486 21 501.062 19.336 501.254 19.016L502.79 16.328C502.982 16.136 503.27 15.72 503.654 15.08L506.534 11.336C506.918 10.888 507.75 10.344 509.03 9.704C509.734 9 510.566 8.456 511.526 8.07199C513.958 7.048 516.038 6.44 517.766 6.248C518.534 6.824 519.59 6.632 520.934 5.672C524.774 5.992 527.334 6.152 528.614 6.152C529.958 6.152 531.27 6.376 532.55 6.824C534.47 7.208 535.462 7.944 535.526 9.032C535.654 10.632 535.43 11.848 534.854 12.68C534.278 13.512 533.542 13.864 532.646 13.736C530.022 13.352 527.878 13.224 526.214 13.352C524.55 13.48 522.982 13.96 521.51 14.792C521.382 14.856 521.094 14.984 520.646 15.176C519.622 15.624 518.79 16.104 518.15 16.616C515.782 18.6 513.574 22.344 511.526 27.848L511.238 29.48C511.302 29.416 511.302 29.448 511.238 29.576C511.238 29.64 511.174 29.832 511.046 30.152C510.982 30.408 510.918 30.632 510.854 30.824C510.854 31.016 510.758 31.336 510.566 31.784C509.926 33.512 509.35 35.944 508.838 39.08C508.39 42.152 508.166 44.712 508.166 46.76C508.166 48.808 508.518 50.44 509.222 51.656L510.758 53.384C511.014 53.896 511.782 54.504 513.062 55.208C513.638 55.912 514.502 56.616 515.654 57.32C516.678 57.768 518.406 57.288 520.838 55.88C521.094 55.688 521.35 55.464 521.606 55.208L523.91 53.672C525.318 52.2 526.182 51.208 526.502 50.696L527.654 49.736L528.038 46.76C528.038 46.696 528.102 46.504 528.23 46.184C528.486 45.224 528.614 44.392 528.614 43.688V42.344L528.422 39.368C528.486 38.472 528.358 37.864 528.038 37.544C527.078 37.544 525.286 38.44 522.662 40.232C522.47 40.36 522.022 40.424 521.318 40.424C520.678 40.36 520.166 40.232 519.782 40.04C518.694 39.4 518.15 38.6 518.15 37.64C518.15 36.68 518.246 35.912 518.438 35.336C518.63 34.76 518.726 34.376 518.726 34.184C518.79 33.992 518.918 33.8 519.11 33.608C519.366 33.352 519.686 33.096 520.07 32.84C520.454 32.584 520.902 32.2 521.414 31.688C521.99 31.112 523.142 30.408 524.87 29.576C526.598 28.744 528.55 28.328 530.726 28.328C532.902 28.328 534.662 28.968 536.006 30.248C537.35 31.464 538.502 33.768 539.462 37.16C539.59 37.928 539.654 39.624 539.654 42.248C539.654 44.808 539.046 49.608 537.83 56.648C537.51 59.72 537.126 61.8 536.678 62.888C536.294 63.912 536.038 64.968 535.91 66.056C535.782 67.208 535.654 68.008 535.526 68.456C535.462 68.904 535.398 69.192 535.334 69.32C535.334 69.512 535.302 69.672 535.238 69.8C535.238 69.928 535.142 70.28 534.95 70.856C534.758 71.496 534.278 72.136 533.51 72.776C532.742 73.416 532.038 73.768 531.398 73.832C529.286 73.448 527.878 72.776 527.174 71.816C526.918 71.432 526.566 70.728 526.118 69.704C525.67 68.68 525.414 67.784 525.35 67.016C525.35 66.312 525.35 65.832 525.35 65.576C525.414 65.32 525.542 64.552 525.734 63.272C525.926 61.928 526.054 60.904 526.118 60.2L523.526 63.368C523.526 63.624 522.95 64.072 521.798 64.712C521.286 65.224 519.814 65.416 517.382 65.288H516.518C516.454 65.8 514.95 65.768 512.006 65.192C511.622 65.256 510.662 65.032 509.126 64.52ZM558.425 42.632V46.472C558.425 50.44 558.649 52.648 559.097 53.096C559.033 53.16 559.193 53.928 559.577 55.4C559.577 55.912 559.833 56.712 560.345 57.8C560.345 58.12 561.241 58.888 563.033 60.104C563.801 60.104 565.689 59.464 568.697 58.184L575.513 55.592C576.345 55.336 577.113 55.464 577.817 55.976C578.585 56.424 579.033 57.256 579.161 58.472C579.353 59.624 579.321 60.456 579.065 60.968C578.873 61.48 578.329 62.12 577.433 62.888C576.601 63.656 576.057 64.2 575.801 64.52C575.545 64.84 575.065 65.16 574.361 65.48C573.657 65.864 572.857 66.248 571.961 66.632C571.129 67.016 570.553 67.304 570.233 67.496C567.737 68.648 565.817 69.096 564.473 68.84C563.641 68.84 562.777 68.68 561.881 68.36C561.049 68.04 560.569 67.88 560.441 67.88C560.377 67.944 560.121 67.912 559.673 67.784C559.289 67.72 558.905 67.624 558.521 67.496C558.137 67.432 557.145 67.24 555.545 66.92C555.545 66.664 555.097 66.408 554.201 66.152L551.609 64.04C551.161 63.784 550.681 62.984 550.169 61.64L549.305 60.2C549.049 60.008 548.697 59.272 548.249 57.992C547.993 57.672 547.833 57.096 547.769 56.264C547.449 55.56 547.289 54.568 547.289 53.288C547.033 52.968 546.745 51.752 546.425 49.64C545.977 46.888 545.945 44.424 546.329 42.248C546.329 41.032 546.553 39.848 547.001 38.696C547.065 38.184 547.129 37.672 547.193 37.16C547.513 35.496 547.737 34.216 547.865 33.32C547.609 32.424 548.025 30.28 549.113 26.888C549.113 26.376 549.305 25.64 549.689 24.68C550.137 23.656 550.393 22.6 550.457 21.512L551.225 19.688C551.225 19.176 551.705 17.288 552.665 14.024C553.177 12.808 553.433 12.104 553.433 11.912L555.833 6.824L556.985 5.288C557.433 4.84 558.105 4.456 559.001 4.136C559.385 3.816 560.409 3.848 562.073 4.232C563.097 4.616 563.801 5 564.185 5.384C564.633 5.576 565.177 5.672 565.817 5.672L573.209 5.192C575.065 5.32 576.313 5.54399 576.953 5.86399C577.593 6.12 578.201 6.6 578.777 7.304C579.417 8.008 579.641 8.712 579.449 9.41599C579.321 10.12 579.065 10.664 578.681 11.048C577.849 11.752 576.313 12.584 574.073 13.544C570.169 15.656 568.057 16.776 567.737 16.904L565.433 17.96C564.473 18.6 563.865 19.272 563.609 19.976C561.625 27.144 560.537 31.144 560.345 31.976C560.217 32.744 560.121 33.224 560.057 33.416C560.057 33.544 560.057 33.64 560.057 33.704L561.977 33.512C564.793 32.616 566.457 32.328 566.969 32.648C567.225 32.648 567.577 32.552 568.025 32.36C570.393 31.528 572.473 31.176 574.265 31.304C574.585 31.112 574.937 31.24 575.321 31.688C575.705 32.136 575.993 32.68 576.185 33.32C576.569 34.92 576.089 36.168 574.745 37.064C572.057 38.856 568.857 40.296 565.145 41.384C563.929 42.344 562.233 42.952 560.057 43.208L558.425 42.632ZM602.62 23.432C602.172 25.608 601.948 27.496 601.948 29.096C601.82 29.992 601.66 30.6 601.468 30.92C601.34 31.24 601.276 31.976 601.276 33.128C601.276 34.28 601.628 34.952 602.332 35.144C603.036 35.144 604.06 34.76 605.404 33.992L607.42 32.168C608.124 31.592 609.756 30.536 612.316 29L614.716 26.696L615.676 25.448L616.06 24.584C616.572 23.752 616.732 22.888 616.54 21.992L616.348 20.36C615.9 18.376 615.58 17.224 615.388 16.904C615.26 16.52 615.036 16.136 614.716 15.752C614.396 15.304 614.044 14.92 613.66 14.6C613.276 14.28 613.052 14.056 612.988 13.928L610.012 12.488C609.948 12.424 609.564 12.328 608.86 12.2C607.772 11.752 606.236 11.688 604.252 12.008L603.676 15.08C603.676 15.464 603.484 16.136 603.1 17.096C602.78 18.056 602.716 18.76 602.908 19.208C602.844 19.4 602.812 19.784 602.812 20.36C602.812 20.872 602.748 21.576 602.62 22.472V23.432ZM600.796 42.056C600.284 42.312 599.964 42.44 599.836 42.44C599.772 42.632 599.74 42.984 599.74 43.496V44.648C599.74 45.096 599.452 46.472 598.876 48.776V49.736C598.876 50.696 598.716 51.464 598.396 52.04L598.012 56.264L597.436 58.664C597.308 59.048 597.276 59.4 597.34 59.72C597.468 60.04 597.564 61.224 597.628 63.272C597.756 65.256 597.692 66.696 597.436 67.592L596.86 68.456C595.58 68.84 594.748 68.936 594.364 68.744C593.98 68.552 593.34 68.424 592.444 68.36C591.548 68.296 591.036 68.232 590.908 68.168C590.844 68.168 590.524 68.04 589.948 67.784C589.436 67.592 589.084 67.432 588.892 67.304C588.764 67.176 588.54 66.984 588.22 66.728C587.388 66.152 586.972 64.904 586.972 62.984C586.844 62.6 586.876 62.152 587.068 61.64C586.684 61.448 586.556 60.936 586.684 60.104C586.876 59.72 586.972 59.112 586.972 58.28C586.972 57.448 587.068 56.776 587.26 56.264V54.728C587.26 54.152 587.484 52.968 587.932 51.176C587.932 50.664 588.028 50.216 588.22 49.832C588.092 49.704 588.252 49.16 588.7 48.2C588.572 48.008 588.732 47.08 589.18 45.416C588.988 45.224 588.956 44.648 589.084 43.688C589.212 42.664 589.372 41.864 589.564 41.288C589.564 40.072 589.66 39.336 589.852 39.08C589.788 38.888 589.692 38.28 589.564 37.256L589.756 36.104C589.756 35.336 590.044 34.152 590.62 32.552C591.132 28.904 591.388 26.92 591.388 26.6C592.284 22.888 592.732 20.584 592.732 19.688C592.924 19.624 593.116 19.016 593.308 17.864C593.5 16.648 593.436 15.784 593.116 15.272C590.236 16.36 587.836 17.64 585.916 19.112C584.636 20.2 583.772 20.616 583.324 20.36C582.428 19.848 581.98 19.112 581.98 18.152L581.596 16.616C581.532 16.552 581.372 16.2 581.116 15.56C580.796 14.856 580.668 14.344 580.732 14.024C580.732 13.704 580.7 13.288 580.636 12.776C580.508 12.2 580.508 11.816 580.636 11.624C581.212 10.536 581.98 9.736 582.94 9.224L585.244 7.592L586.876 6.632C587.004 6.632 588.22 5.96 590.524 4.616C590.652 4.36 591.132 4.136 591.964 3.944C592.796 3.752 594.652 3.17599 597.532 2.216C599.452 2.024 600.572 1.928 600.892 1.928C602.94 1.672 604.668 1.864 606.076 2.504C607.036 2.76 607.58 2.888 607.708 2.888C607.9 2.824 608.124 2.824 608.38 2.888C608.7 2.952 608.924 2.984 609.052 2.984C609.052 3.112 609.34 3.17599 609.916 3.17599L611.74 3.848C612.06 3.848 612.476 4.008 612.988 4.328C613.372 4.264 613.884 4.424 614.524 4.808C615.228 5.128 616.22 5.608 617.5 6.248C618.844 6.88799 619.516 7.432 619.516 7.88C619.9 8.008 620.316 8.35999 620.764 8.936L621.916 10.088L623.74 12.488C623.868 12.552 624.156 12.872 624.604 13.448C625.244 14.536 625.596 15.176 625.66 15.368C625.724 15.56 625.788 15.752 625.852 15.944C625.916 16.072 626.172 16.616 626.62 17.576C627.516 19.368 627.868 20.936 627.676 22.28C627.676 22.344 627.356 23.336 626.716 25.256C625.564 28.648 623.804 31.336 621.436 33.32C620.924 33.704 620.252 34.216 619.42 34.856C618.588 35.432 617.916 35.944 617.404 36.392C614.972 37.864 613.532 38.792 613.084 39.176C612.7 39.56 612.348 39.88 612.028 40.136L610.972 40.616L611.164 41.192C611.164 40.936 611.324 41.064 611.644 41.576C612.028 42.024 612.284 42.376 612.412 42.632C612.412 42.952 612.732 43.336 613.372 43.784C613.5 43.72 613.66 43.784 613.852 43.976C614.236 44.36 614.428 44.968 614.428 45.8C614.876 46.056 615.548 46.824 616.444 48.104C617.34 48.744 618.108 49.64 618.748 50.792C619.196 51.304 619.548 51.656 619.804 51.848C620.06 52.232 620.572 52.744 621.34 53.384C622.108 54.024 622.62 54.472 622.876 54.728C623.132 54.92 623.42 55.144 623.74 55.4C624.892 56.296 625.692 56.968 626.14 57.416L627.292 58.184C629.66 60.488 630.908 61.736 631.036 61.928C630.972 62.376 630.524 63.048 629.692 63.944C629.628 64.968 628.156 65.832 625.276 66.536C624.316 66.536 623.004 66.088 621.34 65.192C619.676 64.36 618.396 63.464 617.5 62.504C614.684 60.456 612.828 58.856 611.932 57.704C609.308 55.08 607.42 52.552 606.268 50.12C606.012 49.928 605.692 49.608 605.308 49.16C604.988 48.712 604.668 48.36 604.348 48.104L603.1 45.704C601.948 44.104 601.372 43.304 601.372 43.304L600.796 42.056Z" fill="#2F518A"/>
</svg>
